<?xml version="1.0" encoding="UTF-8"?>
<svg width="282px" height="127px" viewBox="0 0 282 127" version="1.1" xmlns="http://www.w3.org/2000/svg" xmlns:xlink="http://www.w3.org/1999/xlink">
    <!-- Generator: Sketch 55.2 (78181) - https://sketchapp.com -->
    <title>编组 9</title>
    <desc>Created with Sketch.</desc>
    <g id="页面1" stroke="none" stroke-width="1" fill="none" fill-rule="evenodd">
        <g id="首页" transform="translate(-60.000000, 0.000000)">
            <g id="编组-9" transform="translate(60.000000, 0.000000)">
                <polygon id="矩形" fill="#FFFFFF" points="0 0 205 0 282 0 282 127 0 127"></polygon>
                <g id="蝶蛾" transform="translate(25.000000, 10.000000)" fill="#000000" fill-rule="nonzero">
                    <path d="M50.7748658,30.0301676 C50.9753737,30.1529762 51.0956785,30.248494 51.3763896,30.4258842 C50.5342563,30.4122388 50.1867092,30.6987923 50.2134436,31.4902257 C50.2268108,31.7358429 49.6520213,31.9678148 49.4381462,32.2680136 C48.94356,32.9775746 48.5291769,33.7417172 48.0345907,34.4512781 C47.4999028,35.2427115 47.0855198,36.1842443 45.9225737,36.2524713 C45.3745187,36.2797621 44.7863621,37.3441035 44.9334012,37.9035651 C44.4922838,37.9990829 44.0511663,38.0809553 43.5966816,38.1764731 C43.5966816,38.2447001 43.5966816,38.3129271 43.5966816,38.3811542 C43.7036192,38.4630266 43.823924,38.544899 43.8506584,38.5585444 C43.6367832,38.8587433 43.4229081,39.1452967 43.1956658,39.4864318 C42.7278139,39.8002761 42.1663917,40.1277657 41.6317039,40.5234824 C41.2173208,40.8373267 40.8697737,41.2466888 40.4286562,41.5332422 C40.1479451,41.7242779 39.7736637,41.7788595 39.4394838,41.8607319 C38.9582647,41.9835405 38.6107176,42.2428032 38.5839832,42.7613285 C38.5305144,43.9894148 38.5438816,45.217501 38.4636785,46.4319419 C38.3433737,48.3286529 38.1428658,50.2253639 38.022561,52.1357203 C37.9156234,53.8277503 37.8755218,55.5197803 37.8220531,57.2118102 C37.7819515,58.5763505 37.6616467,59.9545362 37.7819515,61.3054311 C37.9423578,63.0111065 37.7685843,64.689491 37.7151155,66.381521 C37.6883811,67.1183728 37.7017483,67.8279337 37.7819515,68.5647855 C37.8354203,69.0969562 37.5680763,69.6564177 37.5146076,70.2022338 C37.4611388,70.6934683 37.4878732,71.1847028 37.4878732,71.6759374 C37.474506,72.4264345 37.4878732,73.1769317 37.4611388,73.9274288 C37.4210372,75.1691605 37.40767,76.4108922 37.2606308,77.6389784 C37.1937949,78.2257308 37.5279748,78.8670647 37.0333885,79.38559 C37.541342,80.5318039 36.8863494,81.6916631 37.0200213,82.837877 C37.0200213,82.8788132 37.0734901,82.9333948 37.0601229,82.9606856 C36.5120679,83.9977362 37.1269589,85.1303047 36.7794118,86.2082915 C36.5655367,86.8769162 36.4719663,87.613768 36.4318647,88.323329 C36.3917631,89.1284077 36.5388023,89.9471319 36.5254351,90.7522107 C36.5120679,91.3798992 36.3650287,91.9939423 36.3115599,92.6216309 C36.244724,93.372128 36.244724,94.1362706 36.1511536,94.8731224 C36.0575832,95.6236195 35.9105441,96.3741167 35.7234033,97.097323 C35.6164658,97.4930397 35.362489,97.8341748 35.6699345,98.2298915 C35.6966689,98.2708277 35.6030986,98.4209271 35.562997,98.516445 C35.1085123,99.5534956 34.6406605,100.604192 34.199543,101.641242 C33.9856679,102.159768 33.7985271,102.691938 33.5980192,103.224109 C33.5712848,103.305981 33.4777144,103.401499 33.5044488,103.469726 C33.7450583,104.383968 33.1569017,105.038948 32.8761906,105.80309 C32.6489483,106.444424 32.5420107,107.14034 32.3949716,107.808964 C32.3816044,107.877191 32.3415028,107.945418 32.2078308,108 C32.2078308,107.863546 32.2078308,107.713447 32.2078308,107.576993 C32.2345652,107.14034 32.5286435,106.676396 31.9404869,106.321615 C31.806815,106.239743 31.8736509,105.762154 31.9003853,105.4756 C32.0741589,103.456081 32.3281356,101.436561 32.4350732,99.4170415 C32.5553779,97.029096 32.6756827,94.6275051 32.5821123,92.2395596 C32.4484404,88.9237267 32.6355811,85.64883 32.9430266,82.3466425 C33.1168001,80.3817044 33.0499642,78.403121 33.1034329,76.438183 C33.1702689,74.1184645 33.2504721,71.8123914 33.3173081,69.4926729 C33.3841441,67.1320182 33.4376128,64.7713635 33.4777144,62.4107088 C33.517816,58.5354143 33.517816,54.6601199 33.584652,50.7848254 C33.6247536,48.5879156 33.7717927,46.3773603 33.8653631,44.1804504 C33.8920975,43.7165067 33.7584255,43.4845349 33.2237377,43.5118257 C32.6222139,43.5527619 31.9939557,43.4435987 31.3924319,43.4026624 C31.3523303,43.4026624 31.2721271,43.4026624 31.2587599,43.3753716 C30.9379472,42.7203923 30.2562202,42.8432009 29.761634,42.5975837 C29.5076573,42.4611296 29.1868446,41.9835405 28.8392975,41.7379233 C28.5853208,41.5605331 28.2912425,41.4650152 27.9971642,41.3422066 C27.916961,41.3149158 27.7699218,41.3422066 27.7431874,41.287625 C27.30207,40.2915106 26.005452,40.7963905 25.6311705,40.0322479 C25.1499514,40.1004749 24.7890372,40.0868295 24.4815917,40.2232836 C24.2142477,40.3324468 23.7998647,40.6190002 23.8265991,40.7963905 C23.893435,41.492306 23.34538,41.6833417 22.9844657,41.9835405 C22.4497779,42.4201934 22.3294731,43.0069458 22.182434,43.6073435 C22.1423324,43.7983791 21.9418245,44.0167056 21.7680509,44.0849326 C21.3804022,44.2213866 21.2467303,44.4260677 21.1264255,44.8490752 C21.0061208,45.2584372 20.5516361,45.5449907 20.2441906,45.8997712 C19.8699091,46.3227787 19.4287916,46.7184954 19.1614477,47.2097299 C18.2658456,48.8335328 17.0761652,50.1980731 15.699344,51.3579324 C14.3893588,52.4495646 12.9457017,53.4593244 11.4352086,54.223467 C8.7617694,55.5743619 5.92792389,56.4476677 2.89357045,56.4067315 C2.14500748,56.3930861 1.38307732,56.4203769 0.647881555,56.2702774 C-0.100681409,56.120178 -0.220986171,55.6016527 0.393904835,55.1513544 C1.39644452,54.4008572 2.45245299,53.7322325 3.52182865,53.0908985 C5.31303289,52.0402025 6.8502604,50.6756622 8.24044877,49.1473771 C9.52369956,47.7282552 10.71338,46.2409063 11.8896932,44.7262665 C13.1462096,43.116109 14.2690541,41.4104336 15.5523049,39.8139215 C17.3435091,37.5760754 19.2416509,35.4064563 21.0595895,33.1822556 C21.3403006,32.8411206 21.433871,32.3635315 21.6210118,31.940524 C21.7413165,31.6403251 21.9418245,31.3537716 21.9685589,31.0535728 C22.1022308,29.9346497 22.2225356,28.8157267 22.2626372,27.6831583 C22.2760044,27.23286 21.9551917,26.7552709 22.0220276,26.3322634 C22.1556996,25.3634398 22.4631451,24.4219069 22.663653,23.4667287 C22.7705906,22.9618488 22.797325,22.4433235 22.8507938,21.9247982 C23.0646689,20.1508958 23.3988488,18.4315751 24.2944509,16.8214175 C24.8425059,15.8116577 24.9360763,14.5562806 25.4039282,13.4919392 C26.1391239,11.8135546 26.8743197,10.1078793 27.850125,8.56594872 C28.9328679,6.86027336 30.3364234,5.42750605 32.4618076,5.04543476 C33.2905737,4.89533533 34.0391367,5.12730718 34.6406605,5.59125088 C36.044216,6.66923771 37.0467557,8.10200502 37.8487875,9.69851717 C38.0091938,10.0123614 38.2230689,10.3262057 38.4369441,10.5991138 C39.1721398,11.5406466 39.6266245,12.5640518 39.6399917,13.7921381 C39.6533589,14.433472 39.8404996,15.0748059 40.0142732,15.7024945 C40.0410076,15.8116577 40.415289,15.9071755 40.5890626,15.8525939 C41.3509928,15.6479129 42.0861885,15.3067778 42.8614859,15.1703238 C44.4254478,14.8974157 46.0027769,14.569926 47.580106,14.5562806 C49.5985526,14.5426352 51.3095536,15.5387496 52.5794372,17.1216164 C53.1408594,17.8175319 53.3547346,18.8000009 53.7290161,19.6460159 C54.2236023,20.7512936 53.9428912,21.9111528 53.6621801,22.9482034 C53.3948362,23.917027 53.2878986,25.0086593 52.5259684,25.8000926 C52.4858669,25.8410289 52.4190309,25.9229013 52.4323981,25.9774829 C52.6596404,27.3829594 51.3229208,28.2289744 51.2159833,29.5116422 C51.1758817,29.6890325 50.9620065,29.8118411 50.7748658,30.0301676 Z M41.2173208,21.3789821 C40.7494689,21.2425281 40.4687578,21.0924286 40.1880467,21.0924286 C39.9073356,21.106074 39.1721398,22.2659333 39.1587726,22.5797776 C39.1186711,23.4394379 39.0652023,24.2990983 39.0117335,25.1587587 C38.9315303,26.3049726 38.8112256,27.4511864 38.7577568,28.6110457 C38.7176552,29.5116422 38.7577568,30.4122388 38.7443896,31.3264808 C38.704288,32.9502838 38.6641864,34.5740867 38.6107176,36.2115351 C38.5973504,36.7709966 38.8112256,36.8119328 39.1988742,36.4980886 C40.2949843,35.597492 41.3910943,34.6968954 42.4872044,33.7826534 C42.6609779,33.6461993 42.7946499,33.4551637 42.9550563,33.3187097 C43.6367832,32.7592481 44.4521822,32.3225953 44.98687,31.6539705 C46.216652,30.1256854 47.3662309,28.5155278 48.4489737,26.8780795 C49.4515134,25.3634398 50.2802795,23.7259914 50.6278266,21.9111528 C50.8283346,20.901393 50.5075219,20.2191228 49.7188573,19.6187251 C49.0905991,19.141136 48.3955049,19.0319728 47.6603092,18.9773912 C45.9760425,18.8545825 44.371979,19.072909 42.9550563,20.1099596 C42.7946499,20.2327682 42.4738372,20.123605 42.0594541,20.123605 C41.8188446,20.4783855 41.4846647,20.96962 41.2173208,21.3789821 Z M24.093943,29.4843514 C24.3345525,29.2796704 24.4147557,29.2114434 24.4949589,29.129571 C25.4306626,28.1061657 26.2995303,27.0145335 27.30207,26.0593553 C29.4140869,24.0398357 31.5929398,22.0748976 33.7584255,20.0963142 C34.1059726,19.7824699 34.3465822,19.4549803 34.2396446,18.9228096 C34.1594414,18.4861567 34.1728086,18.022213 34.1861758,17.5719147 C34.2530118,15.3067778 34.3465822,13.0552863 34.4000509,10.7901494 C34.4401525,9.46654532 34.3733165,8.14294123 33.4910816,7.0649544 C33.2905737,6.81933715 33.0098626,6.54642909 32.7291515,6.49184748 C31.6464086,6.30081184 30.6305017,6.46455667 29.9220403,7.41973488 C28.7457271,9.00260162 27.9570626,10.8037948 27.2218668,12.6322788 C26.7406477,13.8330743 26.3128975,15.0475151 26.2460615,16.3711192 C26.2059599,17.1489072 25.9920848,17.9130497 25.8316784,18.6908377 C25.5910689,19.9325694 25.3504594,21.1606556 25.0831155,22.4023873 C24.7623028,23.8897362 24.3612869,25.3770852 24.1206774,26.8780795 C23.9870054,27.6831583 24.093943,28.5155278 24.093943,29.4843514 Z M33.9990351,28.42001 C33.9188319,28.3927192 33.8386287,28.3790738 33.7717927,28.351783 C33.5712848,28.488237 33.3707769,28.6383365 33.1034329,28.8157267 C33.0633314,28.5428186 33.0499642,28.3654284 33.0232298,28.1880382 C32.7558859,28.6792727 32.7692531,29.2933158 32.4885419,29.6480963 C32.2078308,30.0028768 31.606307,30.0847492 31.1117208,30.316721 C31.0849864,30.8625371 30.9379472,31.3537716 30.3364234,31.2855446 C30.1760171,31.7494883 30.1626499,32.2953044 29.8819388,32.5272763 C29.280415,33.0321562 29.2670478,34.0692068 28.331344,34.2193063 C28.2511409,34.2329517 28.1843049,34.3830511 28.1174689,34.4785689 C27.5426795,35.2563569 26.9545229,36.0341449 26.4064679,36.8255782 C26.2727959,37.0166139 26.1524911,37.3713943 26.2326943,37.5214938 C26.3529991,37.767111 26.6470774,37.9854375 26.9144213,38.0673099 C27.1416636,38.1355369 27.4223747,37.9990829 27.6763515,37.9445013 C27.7030858,38.1628277 27.7298202,38.408445 27.7298202,38.476672 C28.4115472,38.6677076 29.1200086,38.6949984 29.5611261,39.0634243 C29.8685716,39.322687 30.0958139,39.3636232 30.3898922,39.3636232 C31.1384552,39.3499778 31.8736509,39.2681054 32.6222139,39.2953962 C33.7717927,39.3363324 34.0257695,39.1452967 34.0257695,38.1218915 C34.0124023,35.8567546 33.9990351,33.5916177 33.9856679,31.3264808 C33.9990351,30.3713026 33.9990351,29.402479 33.9990351,28.42001 Z" id="形状"></path>
                    <path d="M90.0743708,47.189327 C90.2067389,46.0545561 90.3126333,45.0018167 90.4450014,43.9490774 C90.6303167,42.4451641 90.7362111,40.9275788 91.0803681,39.4510094 C91.225973,38.8084282 91.3715779,37.9197522 92.2054967,37.6463134 C92.4834697,37.5506098 92.8673371,37.4138904 93.0394156,37.5369379 C93.3306253,37.742017 93.6880191,38.1658471 93.6747823,38.4666297 C93.6085983,39.7928079 93.489467,41.1463299 93.2512045,42.4451641 C92.8541003,44.5369708 92.324628,46.6014336 91.3583411,48.5155051 C91.1333154,48.9530072 91.0936049,49.5545725 91.1333154,50.0741062 C91.225973,51.1268455 91.3980515,52.1795849 91.5966036,53.2186523 C91.7024981,53.7928737 91.9407606,54.3397513 92.046655,54.9139727 C92.2054967,55.8846804 92.324628,56.8690601 92.4040488,57.8534397 C92.4172856,58.0311749 92.1790231,58.4003173 92.0598918,58.4003173 C91.7554453,58.4003173 91.3318675,58.3182856 91.1730258,58.1132065 C90.3391069,56.9374197 89.5184249,55.7342891 89.5978457,54.1620161 C89.5978457,54.0936564 89.5978457,54.0252967 89.5846089,53.956937 C89.4522409,53.6151385 89.3198728,53.2596681 89.1875047,52.9178696 C88.9227686,53.1366206 88.6580324,53.3690436 88.3800595,53.5604507 C87.0696156,54.4217829 85.7591717,55.2831151 84.435491,56.1171034 C83.9324923,56.431558 83.3897832,56.663981 82.8735478,56.9647636 C81.82784,57.566329 80.6497642,57.4569534 79.5378724,57.6757045 C77.9494555,58.003831 76.3742755,57.9764871 74.8255691,57.552657 C72.1782077,56.8280442 70.2059234,55.1463957 68.6969274,52.822166 C67.8630086,51.5233318 66.7511168,50.3612169 66.4334334,48.8026159 C66.1554604,47.4354219 65.9039611,45.9998683 66.0363292,44.6463463 C66.2348813,42.5682115 66.6716959,40.4900768 67.1746946,38.4529578 C67.5453252,36.9490445 68.1674551,35.5134909 68.7631114,34.0779372 C69.4514254,32.4373045 70.1397394,30.7829999 71.0001318,29.2380707 C71.9531819,27.5427502 73.0386001,25.9157895 74.1637287,24.3435164 C75.447699,22.5661643 77.0625895,21.1032668 78.8892688,19.9684959 C79.9614502,19.3122428 81.139526,18.806381 82.304365,18.355207 C85.4944355,17.1247325 88.8565845,17.0427009 92.1922599,17.001685 C94.0454129,16.9743412 95.9118027,17.2751238 97.5266932,18.2458315 C98.5062169,18.8337249 99.3798462,19.722401 100.121107,20.624749 C100.928553,21.6091286 101.550683,22.7712434 102.212523,23.8649986 C103.258231,25.5876629 103.933308,27.4607186 104.290702,29.4568217 C104.568675,30.9880789 104.926068,32.4919923 105.190804,34.0232495 C105.442304,35.5134909 105.627619,37.0174042 105.839408,38.5213175 C105.865882,38.7127247 105.759987,38.9178037 105.773224,39.1092109 C105.826171,39.765464 105.945302,40.4080451 105.985013,41.0506263 C106.011486,41.5018003 105.945302,41.9666462 105.945302,42.4314921 C105.945302,43.142433 106.011486,43.8397019 105.99825,44.5506427 C105.985013,45.4119749 105.905592,46.2596352 105.865882,47.1209673 C105.865882,47.1619831 105.892355,47.2440148 105.865882,47.2576867 C105.164331,47.8182362 105.521725,48.6385526 105.389357,49.3221496 C105.243752,50.0741062 105.12462,50.8397348 104.965779,51.5780195 C104.899595,51.8514583 104.780463,52.1385691 104.595148,52.3436481 C104.17157,52.822166 103.853887,53.3416997 103.681808,53.9842809 C103.628861,54.2167038 103.390599,54.394439 103.205283,54.626862 C103.271467,54.7225656 103.377362,54.859285 103.377362,54.8729569 C102.900837,55.52921 102.464022,56.1171034 102.080155,56.650309 C102.172812,56.9237478 102.358128,57.2382024 102.305181,57.2928902 C102.040444,57.552657 101.696287,57.7577361 101.391841,57.9764871 C101.338894,57.9354713 101.285946,57.8807836 101.232999,57.8397677 C101.193289,58.222582 101.153578,58.5917244 101.100631,59.0428984 C100.73,59.0839142 100.412317,59.1932897 100.531448,59.9179025 C100.584396,60.2460291 100.054923,60.7518908 99.6975295,61.0526735 C99.1415836,61.5175194 98.4929801,61.8593179 97.9105606,62.283148 C97.7914293,62.3651797 97.8046661,62.6386184 97.6855348,62.747994 C97.129589,63.3085435 96.5868799,63.8827649 95.9647499,64.3476109 C95.7264874,64.539018 95.3029096,64.4569864 94.9719894,64.5526899 C94.8793318,64.5800338 94.8131477,64.7440971 94.7337269,64.8534726 C94.7999109,64.9355042 94.8660949,65.0038639 94.932279,65.0858956 C94.5484116,65.2499588 94.1513074,65.4140221 93.7806768,65.5917573 C93.6483087,65.660117 93.489467,65.7421487 93.423283,65.8651961 C93.0261788,66.5898089 92.2452071,66.4667614 91.6495508,66.7402002 C91.5171828,66.8085599 91.2789202,66.6581686 91.0936049,66.6034808 C91.0406577,67.027311 89.9949499,66.7675441 90.5773695,67.683564 C90.0346604,67.6425482 89.6375562,67.6152043 89.2272151,67.5741885 C89.2139783,67.6288763 89.2139783,67.6698921 89.2007415,67.7245799 C89.3198728,67.8066115 89.4257672,67.8886431 89.5581353,67.9843467 C89.5051881,68.0527064 89.4654777,68.1210661 89.4125304,68.14841 C88.274165,68.6952875 87.17551,69.501932 85.9841974,69.7343549 C84.1707548,70.1034973 82.6088116,71.0195172 80.9542107,71.7031142 C79.6437668,72.2363198 78.3862702,72.9062449 76.9831686,73.2343714 C76.3742755,73.3847627 75.8050928,73.7402332 75.2094365,74 C75.169726,73.9179684 75.1432524,73.8359367 75.103542,73.7539051 C75.3947518,73.6308576 75.6991983,73.5214821 75.9771713,73.3847627 C78.1744812,72.2773356 80.4115016,71.2245963 82.5691012,70.0214657 C85.0046737,68.6542717 87.4137726,67.2187181 89.7699242,65.6874609 C91.2656834,64.7167532 92.7084954,63.6093261 94.0321761,62.3788516 C95.1175943,61.3671281 95.9779867,60.1093097 96.9310368,58.9471948 C98.5724009,56.9647636 99.8431344,54.7362375 100.928553,52.4120078 C101.987497,50.1561379 102.715522,47.7498765 102.900837,45.2479116 C103.086152,42.7322748 103.244994,40.216638 103.205283,37.7010011 C103.165573,34.9666133 102.967021,32.2322254 102.199286,29.5935411 C101.722761,27.9529084 101.405078,26.2165721 100.65058,24.7263307 C99.5519246,22.5798363 98.2811912,20.4196699 95.8720923,19.5309938 C94.6940165,19.0934918 93.423283,18.7243494 92.1790231,18.6970055 C90.2861597,18.6423178 88.3800595,18.8747407 86.4739593,19.0661479 C85.5076724,19.1618514 84.5546222,19.4489622 83.5883353,19.6266974 C83.1779943,19.708729 83.0720999,19.8454484 83.2177047,20.3239663 C83.4692041,21.1306107 83.6015721,21.9782709 83.7736506,22.8122592 C83.8001242,22.9489786 83.7868874,23.085698 83.8265979,23.2224174 C84.1310444,24.1794532 84.4619646,25.1364889 84.7664112,26.1071966 C84.9517265,26.6814181 85.1105681,27.2693115 85.2826466,27.8572048 C85.3885411,28.2126753 85.5738564,28.281035 85.9312502,28.1443156 C87.5726143,27.5290783 89.2536888,26.9958727 90.8950528,26.3669635 C92.0996023,25.9157895 93.012942,26.6677461 93.9924657,27.0915762 C94.1645442,27.1599359 94.2969122,27.5564222 94.2836754,27.7888452 C94.2704386,27.9392365 93.9527553,28.1306436 93.7542032,28.1716595 C93.2247309,28.2536911 92.668785,28.1990033 92.1525495,28.3357227 C91.6760244,28.4587702 91.1862626,28.6911931 90.7891584,28.9919758 C89.5581353,29.9353396 88.3535859,30.9060473 87.17551,31.9040989 C87.0034316,32.0544902 86.9637211,32.4509765 86.9901947,32.7244152 C87.0166684,33.0525418 87.1622732,33.3669964 87.2549309,33.6951229 C87.519667,34.7341903 87.7844032,35.7732577 88.0491393,36.8123251 C88.2874018,37.742017 88.5124276,38.6717088 88.7242165,39.6150726 C88.7771637,39.8748395 88.8036373,40.1756222 88.7242165,40.4217171 C88.3138755,41.7615671 88.8698213,42.9510258 89.2007415,44.1951723 C89.37282,44.8240815 89.3860568,45.4940065 89.5448985,46.1229158 C89.5978457,46.4783862 89.8361083,46.7654969 90.0743708,47.189327 Z M71.4898937,34.0916092 C72.0326028,34.0369214 72.5620751,34.0779372 73.0253633,33.913874 C74.5343593,33.3669964 76.0301185,32.8064469 77.4861673,32.1501938 C79.3393203,31.3162055 81.139526,30.3865136 82.9529686,29.4841656 C83.1118103,29.402134 83.2971256,29.1286952 83.2838888,28.9783039 C83.1118103,27.8572048 82.9397318,26.7361058 82.6749956,25.6286787 C82.3970227,24.4939078 82.0396289,23.3728088 81.6954719,22.2653817 C81.5233934,21.732176 81.2718941,21.2126423 81.0203948,20.5700612 C79.8423189,21.4997531 78.743664,22.2653817 77.7641402,23.1677297 C77.0096422,23.8513266 76.4404595,24.7400027 75.7124351,25.4509435 C73.4489411,27.6657977 72.0061292,30.4412014 70.8015797,33.3259806 C70.0073713,35.2263801 69.5043726,37.2634991 69.001374,39.2732742 C68.5645593,41.0096105 68.2336391,42.8006345 68.035087,44.5779866 C67.7306405,47.3397184 68.4057176,49.8690271 69.9941345,52.152241 C71.0001318,53.6014666 72.1384972,54.9276447 73.66073,55.747961 C74.7990954,56.3631983 76.0830657,56.6092932 77.4067464,56.650309 C79.2598994,56.7049968 81.1130524,56.5546054 82.7411797,55.7206171 C84.9384897,54.5858462 86.9769579,53.1229487 88.4859539,51.0448139 C88.6315588,50.8397348 88.7242165,50.5116083 88.684506,50.2655134 C88.4727171,49.1580863 88.2344546,48.0506592 87.9432449,46.970576 C87.7844032,46.3553387 87.5064302,45.7674453 87.3211149,45.3025994 C85.7591717,46.300651 84.3295965,47.3123745 82.8073637,48.1600347 C80.729185,49.3221496 78.5451118,50.2928572 76.4669331,51.4413001 C74.7858586,52.384664 73.0915473,53.040917 71.1457367,52.6444308 C70.6030276,52.5350553 70.3118179,52.1932568 70.4177123,51.7147389 C70.5500804,51.1405175 70.7618693,50.4842644 71.1457367,50.115122 C72.495891,48.8299597 73.9519398,47.654173 75.3682782,46.4373704 C75.5271198,46.300651 75.6859615,46.1365877 75.8315664,45.9861964 C75.791856,45.9315086 75.7653824,45.8768209 75.7256719,45.8221331 C75.1564892,46.0135402 74.5740697,46.2186193 73.9916502,46.3826826 C73.8063349,46.4373704 73.4621779,46.4783862 73.4224675,46.3963545 C73.3033363,46.1229158 73.1444946,45.7264295 73.250389,45.5213504 C73.5018884,45.0701764 73.8592821,44.6326744 74.2696232,44.3045478 C75.8050928,43.0740733 77.4067464,41.9256304 78.9422161,40.6951559 C79.5378724,40.216638 80.0143974,39.5877288 80.5571065,39.0271793 C80.5173961,38.9861634 80.4776857,38.9314757 80.4512121,38.8904599 C78.5054014,40.2713257 76.546354,41.6658635 74.6005433,43.0467294 C74.4417017,43.1561049 74.1372551,43.2928243 74.0710711,43.2244646 C73.8857558,43.0467294 73.7401509,42.7869626 73.6474932,42.5271957 C73.5548356,42.2674289 73.6077828,41.9393023 73.5151252,41.6795355 C73.184205,40.8592191 73.3298099,40.5037487 74.1372551,40.1892941 C74.28286,40.1346063 74.415228,40.0662466 74.5343593,39.9705431 C75.3550413,39.3826497 76.1889602,38.7947563 76.9964054,38.179519 C77.6714826,37.6736573 78.3862702,37.1814675 78.9819265,36.5935741 C80.1732391,35.4314592 81.4572094,34.3787199 82.8073637,33.449028 C83.9457291,32.6560555 83.9722027,32.6150397 83.6545194,31.20683 C83.5353881,30.6599524 83.40302,30.5915927 82.9132582,30.8376876 C80.4776857,32.1365218 78.0685868,33.4763719 75.5800671,34.6384867 C74.7196746,35.0486449 73.6739668,35.0896607 72.7076799,35.1716924 C71.9928924,35.2400521 71.5163673,34.7205184 71.4898937,34.0916092 Z M71.9928924,50.6756715 C72.0458396,50.7577032 72.08555,50.8260629 72.1384972,50.9080945 C72.8268112,50.6893435 73.528362,50.5389522 74.1769655,50.2381695 C76.5198804,49.1580863 78.8892688,48.105347 81.1792364,46.9022163 C82.9000214,45.9998683 84.6869903,45.1111922 85.6268036,43.1561049 C85.9841974,42.4041483 86.3415912,41.7615671 86.0239078,40.8728911 C85.6532772,39.8338237 85.4282515,38.7537405 85.0840945,37.509594 C83.4559673,38.863116 81.9602081,40.1209344 80.4644489,41.3787528 C80.4909225,41.4334406 80.5173961,41.4744564 80.5438697,41.5291442 C80.7821322,41.4060967 81.0203948,41.2693773 81.2718941,41.1600018 C81.82784,40.9275788 82.3705491,40.5721084 82.9397318,40.5174206 C83.4559673,40.4627329 84.0119132,40.6951559 84.5281486,40.8728911 C84.7002271,40.9275788 84.9252528,41.2557054 84.8987792,41.3787528 C84.845832,41.57016 84.5943327,41.7615671 84.3957806,41.8299268 C83.9986764,41.9939901 83.4956777,41.9666462 83.1647575,42.1990692 C81.4042622,43.4158718 79.6702404,44.6736902 77.9494555,45.9451805 C76.1227762,47.3123745 74.3093336,48.7205842 72.5091278,50.115122 C72.2973389,50.2518414 72.151734,50.4705925 71.9928924,50.6756715 Z M88.8565845,28.3767385 C87.7579296,28.3767385 86.8710635,28.8689284 86.0371446,29.4294779 C85.9180134,29.5115095 86.0768551,30.0994029 86.1562759,30.4412014 C86.1695127,30.4958891 86.5533801,30.536905 86.6460378,30.4548733 C87.4005358,29.7849483 88.1153233,29.0740074 88.8565845,28.3767385 Z M84.3031229,34.4607515 C83.2838888,35.2810679 82.2911282,36.0603684 81.3116045,36.839669 C81.3380781,36.8806848 81.3645517,36.9353725 81.3910254,36.9763884 C82.2117074,36.5799021 83.0191526,36.1424001 83.8663083,35.8142735 C84.501675,35.5681786 84.7002271,35.2400521 84.3031229,34.4607515 Z M91.0936049,44.2361881 C91.1994994,44.2498601 91.3053938,44.263532 91.4245251,44.277204 C91.5966036,43.1971207 91.7686821,42.1170375 91.9407606,41.0506263 C91.8348661,41.0369543 91.7157349,41.0096105 91.6098404,40.9959385 C91.4377619,42.0623498 91.2656834,43.1561049 91.0936049,44.2361881 Z" id="形状"></path>
                    <path d="M206.383087,31.3828379 C206.396661,31.4233319 206.464531,31.6123038 206.518827,31.7877777 C206.315216,32.6381514 205.256442,32.7731314 204.998536,33.637003 C204.862796,34.1094329 204.306261,34.4603807 203.96691,34.8788186 C203.654707,35.2837584 203.396801,35.7291922 203.071024,36.1206341 C202.880988,36.3501 202.609507,36.5120759 202.351601,36.6740519 C202.202287,36.7685378 202.025824,36.7955338 201.849362,36.8495258 C201.957954,36.9980037 202.066546,37.1464817 202.243009,37.3894456 C201.713622,37.6054135 201.197809,37.8213814 200.586978,38.0643453 C200.83131,38.2533173 200.994198,38.3613012 201.062069,38.4152932 C200.424089,39.4681368 199.826832,40.4939844 199.188853,41.492836 C199.066687,41.6953059 198.835928,41.8167879 198.645892,41.9922618 C198.985243,42.6941575 199.51463,42.9506194 200.274775,42.6536636 C201.496437,42.1947317 202.7181,41.7627959 203.926188,41.2633701 C204.414853,41.0609002 204.87637,40.7639443 205.310739,40.4534904 C205.514349,40.3050125 205.717959,40.0350526 205.745107,39.8055867 C206.016588,37.2004737 207.44186,35.1622764 209.002873,33.2050672 C209.898759,32.0847336 210.943959,31.072384 212.002733,30.1275244 C212.559268,29.6280986 213.305839,29.2906487 214.025263,29.0206888 C214.242447,28.9397008 214.69039,29.2366567 214.934722,29.4661226 C215.070463,29.6011026 215.084037,29.9385525 215.043315,30.1680184 C214.880426,31.16687 215.260499,31.9632517 215.912052,32.6921434 C216.305699,33.1510752 216.71292,33.2590592 217.174437,32.8946133 C217.568083,32.5841594 217.771694,32.7326374 217.934582,33.1105812 C218.151766,33.5965091 218.396099,34.0554409 218.572561,34.5548667 C218.613283,34.6628506 218.450395,34.9868025 218.355377,35.0003005 C217.323751,35.1352805 216.9844,36.0666421 216.373569,36.6740519 C215.87133,37.1734777 215.477683,37.6054135 214.663242,37.4974295 C213.8488,37.3894456 213.265117,37.9833574 212.654286,38.4287912 C212.233491,38.7392451 211.826271,39.0766949 211.405476,39.3871488 C211.133995,39.5896187 210.753923,39.5896187 210.686053,40.1160405 C210.64533,40.3860004 210.075221,40.5884704 209.695149,40.8584303 C209.735871,40.6829563 209.763019,40.6019684 209.803741,40.4129964 C209.491538,40.6424623 209.247206,40.8179363 208.989299,40.9934102 C208.324172,41.438844 207.686193,41.9382698 206.980344,42.2757197 C206.450957,42.5321816 206.206624,42.7886435 206.274494,43.4365473 C206.383087,44.4488969 206.939622,45.2452786 207.577601,45.9606723 C208.514208,46.9865199 209.518686,47.9448775 210.496016,48.9437291 C210.876089,49.321673 211.296884,49.6861189 211.62266,50.1045567 C211.989159,50.5769865 212.287788,50.6309785 212.681434,50.1855447 C212.8036,50.0370667 212.980063,49.9290828 213.129377,49.7941028 C213.197247,49.8210988 213.251543,49.8345968 213.319413,49.8615928 C213.224395,50.2125406 213.170099,50.5904845 213.007211,50.9144364 C212.8036,51.3328742 212.790026,51.6838221 213.007211,52.1157579 C213.64519,53.3710714 214.215299,54.6668789 214.866852,55.9221924 C214.975445,56.1246624 215.396239,56.1516584 215.654146,56.2461443 C215.586276,56.5565982 215.341943,56.988534 215.423387,57.3394819 C215.572702,58.1088676 215.952774,58.8512573 216.129237,59.620643 C216.346421,60.5115107 216.590754,61.4428723 216.563606,62.347238 C216.522883,64.6958891 216.197107,67.0310422 215.59985,69.3257013 C215.450535,69.9061151 215.084037,70.4325369 214.82613,70.9859546 C214.785408,71.0669426 214.676816,71.1614286 214.69039,71.2019226 C215.043315,71.8498263 214.378187,71.9983043 214.120281,72.3492521 C213.64519,73.0106539 213.237969,73.7125496 212.722156,74.3334574 C212.46425,74.6439112 212.057029,74.8328832 211.69053,75.0218551 C210.848941,75.4402929 209.993777,75.8587308 209.12504,76.2096786 C208.839985,76.3311606 208.48706,76.2771686 207.984821,76.3311606 C207.957673,76.3716546 207.849081,76.5876225 207.672619,76.7630964 C207.577601,76.8575824 207.387564,76.9115744 207.23825,76.9115744 C206.668141,76.9385704 206.098032,76.9520683 205.527923,76.9655663 C205.351461,76.9655663 205.161424,77.0330563 205.025684,76.9790643 C203.83117,76.4931365 202.623081,76.0207067 201.469289,75.4537909 C200.641274,75.0488511 199.894702,74.4954333 199.093835,74.0230035 C198.40156,73.6180636 197.709284,73.1726298 196.962713,72.8891719 C196.026105,72.5247261 195.849643,72.4167421 195.768199,71.4718825 C195.225238,72.0118022 194.872313,71.4448865 194.42437,71.3099065 C193.406318,71.0264486 194.573684,70.5270228 194.315778,70.135581 C195.048775,70.4460349 195.781773,70.7429907 196.501196,71.0669426 C197.4921,71.5123764 198.442282,72.0522962 199.541778,72.2547662 C200.600552,72.4437381 201.60503,72.8621759 202.663804,72.9971559 C203.532541,73.1051398 204.428427,72.9431639 205.324313,72.8891719 C206.993918,72.781188 208.324172,71.8903203 209.654427,71.0399466 C210.251684,70.6620028 210.767497,70.2165689 210.971107,69.4336852 C211.106847,68.9207614 211.541216,68.4888256 211.785549,68.0028978 C212.39638,66.7475843 212.790026,65.4247808 212.817175,64.0074913 C212.830749,62.7656758 212.925767,61.5103623 212.993637,60.2685468 C212.993637,60.1335668 212.980063,59.9985869 212.966489,59.8636069 C212.885045,59.1212172 212.790026,59.0537272 212.097751,59.2831932 C211.799123,59.2292012 212.084177,58.5138075 211.514068,58.7702694 C211.48692,58.6622854 211.41905,58.5543014 211.432624,58.4598155 C211.459772,58.3653295 211.541216,58.2438476 211.636234,58.2033536 C212.8036,57.7849157 212.586416,56.961538 212.247065,56.1111644 C211.921289,55.3012847 211.568364,54.504903 211.188291,53.6275333 C210.061647,54.558895 209.518686,55.6657305 208.975725,56.7185741 C208.405616,57.8389077 207.401138,58.8107633 207.496157,60.1335668 C207.048214,60.2010568 206.600271,60.2550488 206.043736,60.3360367 C206.016588,60.1875588 206.003014,60.0120849 205.962292,59.8366109 C205.894422,59.4721651 205.812977,59.1212172 205.731533,58.7567714 C205.717959,58.6622854 205.650089,58.5408034 205.690811,58.4733135 C205.98944,57.8524057 206.342364,57.2449959 206.613845,56.6105902 C206.790307,56.2056503 206.858177,55.7467185 206.96677,55.3147827 C207.10251,54.7748629 207.278972,54.2349431 207.37399,53.6815253 C207.428286,53.3980674 207.333268,53.1011115 207.30612,52.8041557 C207.021066,52.8716456 206.736011,52.9256376 206.437383,52.9931276 C206.342364,53.0201236 206.247346,53.0471196 206.152328,53.0876135 C206.111606,53.0336216 206.084458,52.9796296 206.043736,52.9391356 C206.532401,52.5476937 207.021066,52.1427539 207.509731,51.7513121 C207.821933,51.953782 208.14771,52.1562519 208.636375,52.4802038 C208.527783,52.9256376 208.364894,53.4520594 208.256302,54.0054772 C208.202006,54.3159311 208.242728,54.6533809 208.242728,55.0448228 C208.392042,54.9908308 208.541357,54.9773328 208.622801,54.9098428 C209.206484,54.3429271 209.790167,53.7760113 210.319554,53.1551035 C210.468868,52.9796296 210.57746,52.5881877 210.482442,52.3992158 C209.763019,51.0359183 208.989299,49.6591229 207.726915,48.7277612 C206.708863,47.9853715 206.05731,47.0540099 205.636515,45.9336763 C205.419331,45.3262665 205.256442,44.6918608 205.107128,44.070953 C204.984962,43.5310332 204.659185,43.3015673 204.265539,43.6390172 C203.464671,44.3139169 202.487341,44.2599249 201.591456,44.4219009 C200.681996,44.5838768 199.731814,44.5973748 198.795206,44.6378688 C198.428708,44.6513668 198.048635,44.5298848 197.519248,44.4488969 C197.247767,43.9224751 196.826973,43.2205793 196.908417,42.3702057 C196.908417,42.3297117 196.908417,42.2757197 196.921991,42.2352257 C197.546396,41.2768681 198.157227,40.3050125 198.795206,39.3601528 C198.998817,39.0631969 199.229575,38.7797391 199.460334,38.4962812 C199.948998,37.9023694 200.424089,37.2949596 200.926328,36.7145459 C201.021347,36.6200599 201.252105,36.6470559 201.469289,36.6065619 C201.333549,35.2702604 202.500915,34.5683647 203.071024,33.5695131 C203.586837,32.6516494 204.550593,31.9362557 204.917092,30.9778981 C205.297164,29.9655485 206.206624,29.4121307 206.613845,28.4132791 C206.993918,27.4819174 207.957673,26.8070177 208.527783,25.943146 C209.274354,24.8093144 209.885185,23.5809969 210.57746,22.3931734 C210.862515,21.9207436 211.188291,21.4753097 211.500494,21.0163779 C211.568364,20.9218919 211.636234,20.840904 211.69053,20.746418 C212.192769,19.7610644 212.749304,18.7892088 213.183673,17.7633612 C213.604468,16.7915055 213.930245,15.7656579 214.269595,14.7533083 C214.636094,13.6059788 215.043315,12.4586492 215.301221,11.2843237 C215.681294,9.51608633 216.061367,7.73435102 216.224255,5.93911771 C216.387143,4.18437839 216.292125,2.41614107 216.319273,0.64790375 C216.319273,0.431935834 216.373569,0.215967917 216.400717,0 C217.391621,0.0539919792 217.473065,0.958357631 217.812416,1.51177542 C218.314655,2.3351531 218.979782,3.06404482 219.169818,4.10339042 C219.495595,5.77714177 220.038556,7.36990516 219.997834,9.13814248 C219.957112,10.8523878 219.685631,12.5126412 219.332707,14.1728945 C219.305559,14.2943765 219.251263,14.4428544 219.156244,14.5238424 C218.491117,15.0907582 218.491117,15.9276339 218.233211,16.6700236 C218.002452,17.3179273 217.89386,18.0333211 217.568083,18.6272328 C217.228733,19.2211446 216.685772,19.7205704 216.210681,20.2334942 C215.979922,20.4764581 215.776312,20.66543 215.993496,21.0433739 C216.047793,21.1378599 215.884904,21.3943218 215.789886,21.5562977 C215.59985,21.8937476 215.396239,22.2176994 215.179055,22.5281533 C215.016167,22.7441212 214.798982,22.9330932 214.608946,23.1220651 C214.41891,23.311037 214.242447,23.5270049 214.038837,23.6889809 C212.504972,24.8903024 211.459772,26.5370578 210.020925,27.8328653 C209.477964,28.3187931 209.016447,28.7507289 208.48706,28.8452149 C208.324172,29.3851347 208.229154,29.8170705 208.052692,30.2220104 C207.998396,30.3569903 207.767637,30.4109823 207.604749,30.4919702 C207.44186,30.5594602 207.251824,30.5729582 207.116084,30.6674442 C206.939622,30.8429181 206.708863,31.085882 206.383087,31.3828379 Z M206.573123,39.1981769 C206.640993,39.2386709 206.722437,39.2791649 206.790307,39.3196588 C207.618323,38.7797391 208.446338,38.2533173 209.274354,37.7133975 C209.668001,37.4569356 209.980203,37.0519957 210.563886,37.2004737 C210.686053,37.2274697 210.889663,37.0249997 211.025403,36.8900198 C211.636234,36.28261 212.165621,35.6077103 213.129377,35.4052404 C213.618042,35.2972564 214.215299,34.7708346 214.378187,34.2984048 C214.62252,33.610007 214.513928,32.8001274 214.55465,32.1117296 C214.161003,31.9767497 213.957393,31.8687657 213.753782,31.8552677 C213.156525,31.8012757 212.450676,31.5853078 211.989159,31.8147737 C211.147569,32.2467096 210.292406,32.8271233 209.735871,33.5695131 C208.744967,34.8518226 207.957673,36.296108 207.129658,37.6998995 C206.858177,38.1588313 206.749585,38.6987511 206.573123,39.1981769 Z" id="形状"></path>
                    <path d="M145.997926,61.5787385 C146.255995,61.7015168 146.432569,61.7833689 146.609143,61.8652211 C146.649891,61.6878747 146.663474,61.4832444 146.744969,61.3195401 C146.935126,60.9239214 147.057369,60.4464505 147.369769,60.200894 C148.850274,59.0276799 150.466605,58.1409483 152.381753,57.9363179 C152.531162,57.9226759 152.762067,57.7180455 152.775649,57.5952673 C152.870727,56.3811271 152.911475,55.1669869 152.979388,53.8573525 C151.852031,54.1847611 150.955579,54.675874 150.018379,55.1397029 C147.7365,56.312917 145.400291,57.390637 142.833177,57.8135397 C141.474916,58.0318121 140.130237,57.8544658 138.812724,57.4724891 C137.834776,57.1860066 137.848358,55.9718664 138.283002,55.3034072 C139.057211,54.130193 140.170985,53.3253136 141.33909,52.5750022 C142.384951,51.906543 143.362899,51.1289476 144.395177,50.4468464 C147.383352,48.4687528 150.398692,46.5043012 153.400449,44.5262076 C153.889423,44.198799 154.595719,43.9805266 154.799458,43.5303398 C154.96245,43.1620052 154.568554,42.507188 154.364815,42.0024331 C154.07958,41.2521217 153.740015,40.5154524 153.373284,39.6287207 C152.93864,39.9288453 152.57191,40.1880438 152.191597,40.4472422 C150.724675,41.4567521 149.339248,42.6026821 147.777248,43.4348456 C146.758552,43.9668846 145.495369,44.0487368 144.327264,44.2806512 C144.232186,44.2942932 143.960534,43.9668846 143.919786,43.7622542 C143.770377,42.8209545 144.259351,42.0433591 144.72116,41.3066898 C145.34596,40.324464 146.093004,39.4240904 146.772135,38.4691486 C147.492013,37.4459968 148.198309,36.3955609 148.904605,35.358767 C148.918187,35.345125 148.918187,35.3178409 148.93177,35.2905569 C149.665231,34.3356152 150.412275,33.3943154 151.11857,32.4257317 C151.68904,31.6481363 152.205179,30.8432568 152.762067,30.0520194 C153.088049,29.5881905 153.427614,29.1243617 153.848675,28.5377546 C152.639823,28.7014589 152.476832,29.6973267 151.906362,30.2702918 C151.308727,30.8705409 150.80617,31.5526421 149.991214,31.8936927 C149.6109,32.057397 149.284918,32.3438795 148.918187,32.5348679 C148.795944,32.603078 148.537874,32.6303621 148.483544,32.5621519 C148.021735,32.0028289 147.600674,31.4298639 147.16603,30.8568988 C147.138865,30.8296148 147.179613,30.7477626 147.152448,30.7204786 C146.391821,29.847389 147.261109,29.5336224 147.709335,29.0561516 C148.347718,28.3740503 148.945353,27.651023 149.570153,26.9552798 C150.167788,26.2731785 150.765423,25.6047193 151.32231,24.895334 C152.028605,23.9949604 152.748484,23.0945868 153.346119,22.126003 C154.256154,20.6526643 155.27485,19.2748198 156.402207,17.9515434 C157.040589,17.2012321 157.46165,16.2462904 158.059285,15.2367805 C157.692555,15.3049906 157.434485,15.3049906 157.217163,15.4004848 C156.279963,15.8370296 155.451424,16.4236367 154.70438,17.146664 C154.44631,17.4058625 154.025249,17.5286407 153.76718,17.7878391 C153.115214,18.4699404 152.544745,19.2202517 151.879197,19.888711 C151.390223,20.3798238 150.996327,20.8572947 150.738257,21.553038 C150.276448,22.8081043 149.121926,23.0263766 148.089648,22.1532871 C147.505596,21.6621742 147.003039,21.0755671 146.446152,20.5162441 C146.636308,20.3934659 146.690639,20.3388978 146.704222,20.3525398 C147.926657,21.0755671 148.768779,20.1342674 149.597318,19.5613024 C150.561683,18.8928432 151.390223,18.0470376 152.300258,17.2967263 C153.45478,16.3281425 154.595719,15.3186327 155.818154,14.418259 C156.565198,13.8725781 157.420902,13.4360333 158.276607,13.0813406 C158.670503,12.9176363 159.200225,13.0404145 159.648451,13.1086247 C160.354747,13.2177609 161.061042,13.3405391 161.740173,13.5588115 C162.24273,13.7088738 162.758869,14.7047416 162.677373,15.2231385 C162.663791,15.3459167 162.568712,15.4686949 162.487217,15.5505471 C161.875999,16.2190063 161.35986,17.0238858 160.626399,17.4877146 C160.137425,17.8151232 160.096677,18.6063606 159.349633,18.6063606 C159.213807,18.6063606 159.091564,18.8928432 158.955738,19.0429054 C158.521094,19.5067343 158.100033,19.9842051 157.651807,20.4207499 C157.502398,20.5708122 157.257911,20.6526643 157.122085,20.7890846 C156.225633,21.6485321 155.315598,22.4943377 154.419145,23.3537852 C154.459893,23.3947113 154.500641,23.4219954 154.541389,23.4629214 C154.351232,23.7221199 154.228989,24.0768126 153.984502,24.1995908 C153.549858,24.4178632 153.563441,24.7179877 153.631354,25.1545325 C154.351232,24.7452718 155.01678,24.336011 155.709493,23.9949604 C156.26638,23.7221199 156.891181,23.2855751 157.420902,23.3537852 C158.004955,23.4356374 158.534677,24.0222445 159.064399,24.4042211 C159.077981,24.4178632 158.942155,24.6907037 158.833494,24.7861978 C158.65692,24.9635442 158.398851,25.0863224 158.249442,25.2909528 C157.665389,26.0821902 157.135668,26.9007117 156.565198,27.6783071 C155.95398,28.4968286 155.288432,29.301708 154.609302,30.1475136 C155.519337,30.8432568 156.334293,31.5253581 157.203581,32.1119651 C157.706137,32.4530157 158.330937,32.589436 158.847077,32.9168446 C159.132312,33.0941909 159.417546,33.4488835 159.471877,33.7626501 C159.499042,33.9536385 159.091564,34.226479 158.847077,34.4311093 C158.616172,34.6357397 158.317355,34.7585179 158.08645,34.9767903 C157.257911,35.7680277 156.47012,36.6001913 155.64158,37.3777867 C155.043945,37.9507517 154.96245,38.3327284 155.356345,39.3695223 C155.682328,40.2153278 156.021893,41.0474913 156.334293,41.8932969 C156.510867,42.3707677 156.768937,42.548114 157.257911,42.3025576 C158.453181,41.7295926 159.689199,41.402184 161.020295,41.3339738 C162.147651,41.2794057 163.152765,41.5795303 164.11713,42.1388533 C164.361617,42.2889156 164.633269,42.3980518 165,42.5890401 C164.782678,43.2847834 164.592522,44.0078107 164.307287,44.7035539 C163.899808,45.7130638 163.505913,46.7634997 162.595878,47.4183169 C162.106904,47.7730095 161.482103,48.018566 160.884469,48.1004181 C158.887825,48.4005427 157.692555,47.0909083 156.633111,45.6994218 C155.64158,44.3897874 155.95398,44.2942932 154.364815,45.303803 C154.269736,45.3583711 154.201823,45.4402233 154.147493,45.4947914 C154.514223,45.8904101 154.867371,46.2587448 155.193354,46.6407215 C155.27485,46.7498577 155.356345,46.9681301 155.302015,47.0636242 C154.799458,48.059492 155.003197,49.0826439 155.152606,50.1057957 C155.179771,50.3377102 155.111858,50.5832666 155.071111,50.8288231 C155.043945,51.0061694 154.976032,51.1835157 154.921702,51.360862 C154.976032,51.4154301 155.043945,51.4563562 155.098276,51.5109243 C155.369928,51.3062939 155.64158,51.0743795 155.940398,50.8833912 C156.239215,50.6924028 156.551615,50.4741304 156.877598,50.3922783 C158.100033,50.1057957 159.349633,49.9011654 160.572068,49.6146829 C161.033877,49.5055467 161.482103,49.2736322 161.916747,49.0417178 C162.405721,48.7825193 162.799617,48.8370874 163.166347,49.2736322 C163.383669,49.5328307 163.709652,49.682893 163.926974,49.9420914 C164.144295,50.2012899 164.293704,50.5423405 164.497443,50.8970332 C163.818313,51.0470955 163.342921,51.1425896 162.86753,51.2517258 C162.881113,51.2244418 162.881113,51.1835157 162.894695,51.1562316 C162.541547,51.1153056 162.188399,51.0198114 161.848834,51.0470955 C160.78939,51.1289476 159.716364,51.1835157 158.684085,51.4154301 C157.77405,51.6200605 156.904763,52.0429633 156.008311,52.3840139 C155.818154,52.452224 155.573667,52.5204341 155.451424,52.6704964 C155.27485,52.8887688 155.071111,53.1888933 155.071111,53.4617338 C155.057528,54.5940219 155.084693,55.7263099 155.152606,56.858598 C155.166189,57.0359443 155.424258,57.2951428 155.614415,57.3497109 C156.877598,57.7180455 158.195111,57.963602 159.431129,58.4001468 C160.830138,58.8912597 161.93033,59.8325594 162.623043,61.1831198 C162.663791,61.264972 162.704539,61.3468241 162.745286,61.4286763 C162.989773,61.8652211 163.505913,62.39726 163.410834,62.7383106 C163.220678,63.4340539 162.813199,64.1980073 162.269895,64.6481941 C161.373443,65.3985055 160.300416,65.9305444 159.295303,66.5580776 C159.118729,66.6672138 158.942155,66.7627079 158.765581,66.8582021 C157.923459,67.3083889 157.09492,67.7722178 156.239215,68.2224046 C155.709493,68.4952451 155.166189,68.7408015 154.622884,69 C154.595719,68.9454319 154.554971,68.8908638 154.527806,68.8499377 C155.030363,68.4816031 155.546502,68.1132684 156.049059,67.7312917 C157.638224,66.5171515 159.240972,65.3302953 160.775808,64.047945 C161.224034,63.6659683 161.468521,63.0111511 161.740173,62.4518281 C161.808086,62.3154079 161.699425,62.0016413 161.563599,61.8788631 C160.639982,61.0330576 159.634868,60.3509563 158.330937,60.2281781 C157.855546,60.17361 157.393737,59.9416956 156.931928,59.8052753 C156.768937,59.7507072 156.57878,59.7370652 156.402207,59.7507072 C155.057528,59.8052753 155.030363,59.8189174 154.948867,61.1285517 C154.867371,62.4109021 154.894537,63.7068944 154.813041,65.0028868 C154.75871,65.8623343 153.468362,66.5717196 152.843562,66.1215328 C152.476832,65.8623343 152.218762,65.3848634 151.824866,65.2075171 C151.145736,64.9073926 150.398692,64.7300463 149.678814,64.5526999 C148.741613,64.3207855 147.804413,64.1297972 146.867213,63.9115248 C146.717804,63.8705987 146.568395,63.8160306 146.418987,63.7887466 C145.481786,63.6114002 145.305212,63.2157815 145.753439,62.383618 C145.889265,62.1517036 145.91643,61.851579 145.997926,61.5787385 Z M139.396776,55.9991504 C139.627681,56.5175474 140.116655,56.4493372 140.537716,56.4902633 C142.154046,56.6266836 143.661716,56.1082866 145.142221,55.6035317 C146.609143,55.1124188 148.0489,54.5530958 149.488657,53.9664887 C150.588849,53.5163019 151.648292,52.9706209 152.734901,52.4931501 C153.115214,52.3294458 153.210293,52.0838893 153.169545,51.6882706 C153.115214,51.0607375 153.115214,50.4195623 153.115214,49.7920292 C153.101632,49.0280758 153.128797,48.2504804 153.101632,47.486527 C153.101632,47.3091807 152.965806,47.0090561 152.870727,46.9954141 C152.341006,46.954488 151.852031,46.6816475 151.281562,47.0772663 C150.045544,47.9367138 148.714448,48.6597411 147.47843,49.5328307 C144.66683,51.4972823 141.841646,53.4890179 139.396776,55.9991504 Z M144.490256,42.6845343 C144.558169,42.7936705 144.626082,42.8891647 144.693995,42.9983009 C145.087891,42.8755226 145.508952,42.8073125 145.848517,42.6026821 C147.288274,41.7295926 148.700865,40.8155769 150.113457,39.9015612 C150.955579,39.3558803 151.784118,38.7829152 152.599075,38.1963082 C152.748484,38.087172 152.911475,37.8006894 152.870727,37.6506272 C152.436084,36.1909305 152.069353,34.7312339 152.164432,33.1896851 C152.178014,33.0805489 152.069353,32.9168446 151.974275,32.8759185 C151.892779,32.8486345 151.729788,32.9441286 151.661875,33.0259808 C151.308727,33.4352415 150.955579,33.8445023 150.629596,34.267405 C149.692396,35.5224713 148.755196,36.7911796 147.831578,38.0598879 C146.717804,39.6014367 145.60403,41.1429855 144.490256,42.6845343 Z M157.203581,43.7213282 C158.08645,44.7854061 158.819911,45.7539899 159.634868,46.6270794 C160.137425,47.1591184 160.816555,47.1181923 161.427773,46.7089316 C162.324225,46.1223245 162.826782,45.2492349 163.071269,44.2397251 C163.23426,43.612192 162.976191,43.2574993 162.324225,43.0392269 C160.612816,42.4526199 159.037233,42.9710168 157.203581,43.7213282 Z M152.585493,60.5283026 C151.077823,61.1285517 149.773892,61.7560849 148.918187,63.2157815 C150.045544,63.2157815 150.996327,63.2430656 151.960692,63.2021395 C152.178014,63.1884975 152.544745,62.9702251 152.558327,62.8065208 C152.62624,62.0971355 152.585493,61.3741082 152.585493,60.5283026 Z M154.310484,32.3575216 C154.242571,32.4120897 154.161076,32.4666578 154.093162,32.5212259 C153.862258,33.680798 153.930171,34.8403701 154.296902,35.9726581 C154.364815,36.1636465 154.595719,36.3955609 154.799458,36.436487 C154.948867,36.477413 155.220519,36.3000667 155.342763,36.1500044 C155.614415,35.8089538 155.89965,35.4406192 156.062641,35.0313584 C156.171302,34.799444 156.130554,34.4583934 156.049059,34.1855529 C155.981146,33.9399964 155.790989,33.721724 155.600832,33.5443777 C155.193354,33.135117 154.745128,32.7531403 154.310484,32.3575216 Z" id="形状"></path>
                    <path d="M194.536657,32.0247051 C195.027568,31.9432614 195.505211,31.8346699 195.996121,31.7668001 C196.765657,31.6717825 197.641335,31.3867297 198.251657,31.9568354 C198.915049,32.5540889 199.697853,32.7305502 200.440853,33.0834728 C200.905227,33.3006559 201.051174,33.6943003 200.984835,34.264406 C200.878692,35.1602864 200.493924,35.8389836 199.817263,36.4090893 C199.59171,36.5991245 199.498835,36.965621 199.326353,37.2506739 C199.193674,37.4814309 199.03446,37.6850401 198.888514,37.9022232 C198.636424,38.3094416 198.397603,38.7166599 198.145514,39.1238783 C198.079175,39.2324698 197.946496,39.436079 197.933228,39.422505 C197.322907,39.1374522 197.163693,39.8025755 196.765657,39.9654628 C196.553371,40.0469065 196.341086,40.4676988 196.102264,39.9926107 C196.088996,39.9654628 195.889979,39.9926107 195.810371,40.0469065 C194.735675,40.902065 193.5283,41.662206 192.984318,43.0331744 C192.798568,43.4946885 192.692426,43.9833505 192.546479,44.4584386 C192.626086,44.5127344 192.705694,44.5806041 192.785301,44.6348999 C193.488497,44.0376463 194.191693,43.4539667 194.961229,42.8024173 C195.478675,43.4539667 196.049193,44.0647942 196.1288,45.0149703 C196.181871,45.6665197 196.367621,46.3044951 196.487032,46.9424705 C196.142068,47.3768367 195.744032,47.8519248 195.3858,48.3405868 C194.921425,48.9649883 194.284568,49.3450587 193.700783,49.8201468 C192.48014,50.7974708 191.007408,50.9467842 189.680623,51.4354463 C187.305677,52.3177527 184.837856,52.9557281 182.27716,52.9964499 C181.229,53.0235978 180.180839,52.8878584 179.132679,52.8335626 C179.092875,52.738545 179.039804,52.6571013 179,52.5620837 C179.265357,52.2091611 179.464375,51.7883688 179.796071,51.5304639 C181.932196,49.8608687 184.094856,48.2184213 186.257516,46.575974 C186.522873,46.3723648 186.774963,46.1551817 187.066855,45.9922944 C188.048677,45.4357626 188.499784,44.6484738 188.234427,43.4811146 C188.115016,42.9517307 188.234427,42.4902166 188.751873,42.1780159 C189.20298,41.892963 189.455069,41.4857447 189.415266,40.8884911 C189.375462,40.2097939 189.401998,39.5446706 189.401998,38.8523994 C189.38873,38.8523994 189.335659,38.8116775 189.309123,38.8252515 C187.809855,39.7211318 186.310588,40.6305861 184.798052,41.5264665 C184.612302,41.6350581 184.373481,41.7165017 184.147927,41.7300757 C183.829499,41.7572236 183.39166,41.5807623 183.378392,42.0965722 C183.365124,42.5445124 183.166106,43.128192 183.802963,43.3860969 C184.293874,43.5897061 184.771517,43.7933153 185.249159,44.0104984 C185.461445,44.11909 185.726802,44.2141076 185.846213,44.4041428 C186.005427,44.6348999 186.164641,45.0149703 186.085034,45.2321535 C186.005427,45.4357626 185.620659,45.6122239 185.355302,45.6529457 C184.69191,45.7479634 184.121392,45.4900584 183.617213,45.0285443 C182.953821,44.4177168 182.184285,43.9154808 181.71991,42.870287 C182.144481,42.9788786 182.423106,43.0467483 182.847678,43.1689138 C182.847678,42.7481215 182.940553,42.3409032 182.83441,42.0151285 C182.595589,41.2414137 182.887481,40.657734 183.325321,40.1147762 C184.081588,39.1510262 184.784784,38.1465542 185.647195,37.2913957 C186.496338,36.4498111 187.478159,35.7711139 188.433444,35.0516948 C188.844748,34.7394941 189.415266,34.5901807 189.76023,34.2236842 C190.078658,33.8843355 190.31748,33.3820996 190.397087,32.9070115 C190.596105,31.7803741 190.715515,30.6265888 190.80839,29.4863774 C190.861462,28.8619759 190.821658,28.2240005 190.781855,27.5995991 C190.755319,27.0973631 190.277676,26.7580145 189.773498,26.866606 C189.322391,26.9616237 188.858016,27.0702152 188.380373,27.1652328 C188.420177,25.1970108 190.277676,24.4504439 191.776944,25.4277679 C192.466872,25.8757081 193.130265,26.4186659 193.687515,27.0294934 C194.536657,27.9932435 194.815282,29.2284725 194.70914,30.4772754 C194.669336,30.9387895 195.226586,31.5360431 194.2713,31.8482438 C194.364175,31.9161135 194.443782,31.9704093 194.536657,32.0247051 Z M181.122857,51.3404286 C182.46291,51.6119075 188.433444,49.0192841 188.83148,48.04196 C186.376927,48.6935094 182.980356,50.1323475 181.122857,51.3404286 Z M193.660979,38.214424 C194.191693,37.6307443 194.70914,37.0606386 195.332729,36.3819414 C194.231497,36.3412196 193.674247,36.9520471 193.660979,38.214424 Z" id="形状"></path>
                    <path d="M134.432634,35.9419061 C134.790471,35.7368304 135.189596,35.4497244 135.616247,35.3130072 C136.579653,35.0122295 137.570585,34.7661386 138.547755,34.5473912 C138.781725,34.4927043 139.070746,34.6294215 139.318479,34.7114518 C139.511161,34.7798104 139.676316,34.9438709 139.868997,34.9848861 C140.763589,35.1899618 141.135188,35.709487 140.95627,36.6528353 C140.81864,37.3500928 140.667248,38.0610219 140.391989,38.7172643 C139.88276,39.9477186 139.359768,41.1781729 138.671621,42.3129253 C138.134866,43.187915 137.391667,43.9808745 136.593416,44.6371168 C135.712588,45.3753894 134.666604,45.9085863 133.689435,46.5374852 C133.62062,46.5785003 133.510517,46.5921721 133.427939,46.6058438 C132.547111,46.7152175 132.258089,47.0433387 132.07917,47.9320001 C131.831437,49.1897979 131.528653,50.433924 131.28092,51.6917217 C131.225868,51.9514843 131.363497,52.2385903 131.418549,52.5256963 C131.680045,52.4299943 131.969067,52.3753075 132.203037,52.2385903 C134.116086,51.0218077 135.643773,49.3948736 137.033831,47.6448941 C137.309089,47.3031012 137.488008,46.8792781 137.708215,46.4691266 C138.10734,47.0296669 138.038526,48.0003587 137.584348,48.7933182 C137.488008,48.9573787 137.364141,49.1624545 137.377904,49.326515 C137.446719,49.8870554 137.336615,50.24252 136.524602,50.0921311 C137.020068,51.582348 136.09795,52.6077266 135.464855,53.5920901 C134.969389,54.3850496 134.019746,55.0002768 133.15268,55.4240999 C132.354429,55.8069079 131.37726,55.9299534 130.468906,55.9983119 C129.753233,56.0529988 128.89993,54.7678576 128.941219,53.7561507 C128.996271,52.7171004 129.175189,51.6917217 129.312819,50.6526714 C129.436685,49.7503382 129.560552,48.8343333 129.711944,47.7542678 C128.087917,48.9163636 126.463889,49.6546362 124.619654,49.2854999 C123.174545,48.9847222 121.93588,48.178091 121,46.9202932 C121.536755,46.7425609 122.16985,46.6878741 122.610265,46.3597529 C123.683774,45.5804652 124.688469,44.6918037 125.706927,43.8168139 C126.298734,43.3109605 126.849252,42.7777636 127.413532,42.2582384 C127.688791,41.9984758 127.908998,41.7113698 128.184257,41.4516072 C128.679723,40.9594255 129.161426,40.4399003 129.698181,39.9887337 C130.510195,39.305148 130.496432,38.3754714 130.647824,37.4594665 C130.81298,36.475103 131.102001,35.4907395 131.459838,34.5610629 C131.721334,33.8638055 133.097628,33.8091186 133.510517,34.4380175 C133.813302,34.8755124 134.074797,35.3676941 134.432634,35.9419061 Z M138.451414,36.2563556 C137.226512,37.2680625 136.070424,38.1840674 134.969389,39.1684308 C134.680367,39.4281934 134.528975,39.87936 134.418871,40.2758398 C134.239953,40.8773952 134.171138,41.5199658 134.033509,42.135193 C133.923405,42.6000313 133.799539,43.0511979 133.675672,43.5433796 C135.051967,43.6117382 138.781725,38.0200068 138.451414,36.2563556 Z M130.964372,38.3754714 C132.423244,37.7739159 132.505822,36.7348656 132.299378,35.5864415 C132.271852,35.4633961 132.134222,35.3540224 132.051645,35.2309769 C131.941541,35.326679 131.762623,35.3950375 131.721334,35.518083 C131.459838,36.4477596 131.225868,37.3774362 130.964372,38.3754714 Z" id="形状"></path>
                    <path d="M190.366875,60.9808938 C190.47894,61.242411 190.562989,61.462636 190.675055,61.7241532 C192.131905,59.1089813 193.532723,56.603922 194.919532,54.1126267 C194.541311,54.0850986 194.205115,54.0438064 193.868919,54.0162783 C193.840903,53.947458 193.798878,53.8786377 193.770862,53.8235814 C194.891516,52.8050408 195.886096,51.5525111 197.174849,50.8230158 C198.029347,50.3412736 199.16401,49.6530705 200.340697,50.203633 C200.704909,50.3688018 201.041105,50.644083 201.307261,50.9331283 C201.615441,51.2634658 201.727506,51.7865002 202.343866,51.8277924 C202.455931,51.8415564 202.652046,52.3508267 202.624029,52.6123439 C202.441923,53.8235814 202.189776,55.0210548 201.979653,56.2322923 C201.909612,56.6452142 201.881596,57.0719001 201.839572,57.498586 C202.189776,57.2370689 202.596013,57.0168439 202.876177,56.7002704 C203.394479,56.1084158 203.842741,55.4477408 204.333027,54.828358 C204.417076,54.7320095 204.571166,54.5806048 204.641207,54.5943689 C205.285583,54.7595376 205.495706,54.167683 206,53.8235814 C205.971984,54.181447 206.014008,54.4567283 205.929959,54.6631892 C205.705828,55.1862236 205.411657,55.6679658 205.145501,56.163472 C205.103477,56.2460564 204.991411,56.2735845 204.949387,56.3561689 C204.487117,57.0719001 204.010839,57.8013954 203.548569,58.5308907 C203.366463,58.819936 203.254397,59.1640376 203.016258,59.3842626 C202.189776,60.1963423 201.867588,61.2974672 201.23722,62.1921313 C200.424746,63.3345485 199.444173,64.5182578 197.749184,64.4219094 C197.567078,64.0640438 197.398979,63.6511219 197.146832,63.2794922 C196.740595,62.6738735 196.768612,62.123311 197.258898,61.6002766 C198.253478,60.5129157 198.757773,59.1640376 199.304092,57.8426876 C199.85041,56.5213376 200.326688,55.1586955 200.77495,53.7960533 C201.055114,52.9564455 200.704909,52.5572877 199.794378,52.6811642 C199.374132,52.7362205 198.939879,52.9151533 198.589675,53.1491424 C198.141413,53.4519517 197.819225,53.9199298 197.384971,54.2365033 C196.404399,54.9522345 195.339778,55.5716173 194.40123,56.3424048 C193.896935,56.7553267 193.518715,57.3747095 193.182518,57.9528001 C192.874338,58.4758345 192.720248,59.0814532 192.482109,59.6457798 C192.412069,59.7971844 192.271987,59.921061 192.17393,60.0724657 C192.103889,60.1825782 191.949799,60.3477469 191.977815,60.3890391 C192.314011,60.8294891 191.837733,61.0772422 191.767692,61.4213438 C191.543562,62.5499969 191.361455,63.67865 191.123316,65 C190.955218,64.6146063 190.843153,64.339325 190.661046,63.9264031 C189.932621,63.6235938 189.764523,61.7654454 190.366875,60.9808938 Z" id="路径"></path>
                    <path d="M222.355418,42.3189008 C220.616287,43.6506081 218.877157,44.9823154 217.138026,46.3140228 C217.096618,46.3007057 217.05521,46.2873886 217,46.2740715 C217.096618,46.0876325 217.151829,45.8479252 217.303658,45.7014374 C218.766736,44.3297788 220.243616,42.9847544 221.720497,41.626413 C221.78951,41.5598276 221.899931,41.5198764 221.927536,41.453291 C222.258799,40.5344129 223.15597,40.3479739 223.928916,40.1082666 C224.467219,39.9484617 225.102139,39.9884129 225.668047,40.0816325 C226.109731,40.1615349 226.178744,40.7608032 225.819876,41.266852 C225.516218,41.6929983 225.15735,42.0925105 224.784679,42.545291 C224.094548,42.3854861 223.873706,42.5719252 224.039337,43.3576325 C224.246377,44.3031447 224.246377,45.1820715 223.349206,45.8612423 C223.004141,46.1275837 223.073154,46.1941691 223.459627,46.5670472 C223.556246,46.6469496 223.542443,46.8600228 223.542443,47.0065106 C223.542443,47.259535 223.514838,47.5125594 223.487233,47.8588033 C224.57764,47.7256325 225.571429,47.6457301 226.551415,47.4859252 C227.338164,47.3660716 228.124914,47.1929496 228.884058,46.9665594 C229.408558,46.8200716 229.836439,46.8067545 230.278123,47.1529984 C230.747412,47.5258764 231.31332,47.7922179 231.755003,48.178413 C232.017253,48.4048033 232.21049,48.7909984 231.561767,48.9374862 C231.354727,48.9907545 231.189096,49.2304618 230.995859,49.3902667 C230.830228,49.5367545 230.664596,49.7764618 230.485162,49.7897789 C229.712215,49.8563643 229.380952,50.4556326 228.966874,50.9084131 C228.469979,51.4544131 227.904072,51.7473887 227.15873,51.8406082 C226.648033,51.9071936 226.137336,52.2933887 225.668047,52.2401204 C224.287785,52.0936326 223.542443,53.3987058 222.286404,53.5052424 C221.899931,53.5318765 221.541063,53.8514863 221.154589,53.984657 C220.988958,54.0379253 220.781919,53.9447058 220.574879,53.8248521 C221.982747,53.3987058 222.89372,52.2534375 224.232574,51.7074375 C225.502415,51.1880716 226.510007,50.0561204 227.586611,49.0573399 C227.379572,49.083974 227.172533,49.0972911 226.979296,49.1505594 C226.440994,49.2970472 225.902692,49.443535 225.391994,49.6432911 C225.240166,49.7098765 225.226363,50.1093887 225.088337,50.1493399 C224.674258,50.2825106 223.99793,50.5089009 223.846101,50.3357789 C223.445825,49.8963155 223.266391,50.2825106 222.990338,50.3624131 C222.797101,50.4289984 222.603865,50.4822667 222.383023,50.5488521 C222.300207,50.4156813 222.203589,50.1493399 222.120773,50.1493399 C221.113182,50.175974 221.306418,49.3503155 221.334023,48.9108521 C221.444444,47.4726081 221.692892,46.0343642 221.941339,44.5961203 C222.037957,44.0368032 222.31401,43.5174374 222.479641,42.9581203 C222.534852,42.7849983 222.507246,42.5852422 222.521049,42.3854861 C222.493444,42.3988032 222.424431,42.358852 222.355418,42.3189008 Z" id="路径"></path>
                    <path d="M129,31.8434129 C129.633974,31.0604776 130.254458,30.2775423 130.91541,29.5207048 C133.343393,26.7151865 135.798355,23.9227171 138.226339,21.1171988 C138.738913,20.5169484 139.211021,19.8906001 139.737084,19.2903497 C140.128259,18.8336374 140.640834,18.9249798 140.843166,19.4991324 C140.991543,19.903649 141.099453,20.2690188 140.856655,20.7648779 C140.546412,21.4303729 140.600367,22.252455 140.34408,22.9570968 C140.047327,23.7530811 139.656151,24.5360164 138.833335,25.0188266 C138.482626,25.2276093 138.226339,25.6060281 137.889119,25.8539576 C137.524921,26.114936 137.106768,26.3106699 136.715593,26.5455505 C136.405351,26.7282354 136.122086,27.0675074 135.798355,27.1066541 C135.150892,27.1718987 134.705762,27.5372686 134.274121,27.8895895 C132.722909,29.1031392 131.198674,30.3819336 129.660951,31.6215813 C129.499086,31.7520705 129.310242,31.8695108 129.134888,32 C129.10791,31.9347554 129.053955,31.8956086 129,31.8434129 Z" id="路径"></path>
                </g>
            </g>
        </g>
    </g>
</svg>