<?xml version="1.0" encoding="UTF-8"?>
<svg width="1727px" height="808px" viewBox="0 0 1727 808" version="1.1" xmlns="http://www.w3.org/2000/svg" xmlns:xlink="http://www.w3.org/1999/xlink">
    <!-- Generator: Sketch 64 (93537) - https://sketch.com -->
    <title>画板</title>
    <desc>Created with Sketch.</desc>
    <defs>
        <polygon id="path-1" points="0 0.166732447 403.973931 0.166732447 403.973931 755 0 755"></polygon>
    </defs>
    <g id="画板" stroke="none" stroke-width="1" fill="none" fill-rule="evenodd">
        <g id="编组" transform="translate(3.000000, 0.000000)">
            <g transform="translate(0.000000, 42.300000)">
                <mask id="mask-2" fill="white">
                    <use xlink:href="#path-1"></use>
                </mask>
                <g id="Clip-2"></g>
                <path d="M254.3467,171.7997 C253.7467,171.5997 253.1467,171.4997 252.6467,171.2997 C251.1467,172.2997 249.6467,173.3997 247.6467,174.6997 C247.3467,172.6997 247.2467,171.3997 247.0467,170.0997 C245.0467,173.6997 245.1467,178.1997 243.0467,180.7997 C240.9467,183.3997 236.4467,183.9997 232.7467,185.6997 C232.5467,189.6997 231.4467,193.2997 226.9467,192.7997 C225.7467,196.1997 225.6467,200.1997 223.5467,201.8997 C219.0467,205.5997 218.9467,213.1997 211.9467,214.2997 C211.3467,214.3997 210.8467,215.4997 210.3467,216.1997 C206.0467,221.8997 201.6467,227.5997 197.5467,233.3997 C196.5467,234.7997 195.6467,237.3997 196.2467,238.4997 C197.1467,240.2997 199.3467,241.8997 201.3467,242.4997 C203.0467,242.9997 205.1467,241.9997 207.0467,241.5997 C207.2467,243.1997 207.4467,244.9997 207.4467,245.4997 C212.5467,246.8997 217.8467,247.0997 221.1467,249.7997 C223.4467,251.6997 225.1467,251.9997 227.3467,251.9997 C232.9467,251.8997 238.4467,251.2997 244.0467,251.4997 C252.6467,251.7997 254.5467,250.3997 254.5467,242.8997 C254.4467,226.2997 254.3467,209.6997 254.2467,193.0997 C254.3467,186.0997 254.3467,178.9997 254.3467,171.7997 M180.2467,179.5997 C182.0467,178.0997 182.6467,177.5997 183.2467,176.9997 C190.2467,169.4997 196.7467,161.4997 204.2467,154.4997 C220.0467,139.6997 236.3467,125.2997 252.5467,110.7997 C255.1467,108.4997 256.9467,106.0997 256.1467,102.1997 C255.5467,98.9997 255.6467,95.5997 255.7467,92.2997 C256.2467,75.6997 256.9467,59.1997 257.3467,42.5997 C257.6467,32.8997 257.1467,23.1997 250.5467,15.2997 C249.0467,13.4997 246.9467,11.4997 244.8467,11.0997 C236.7467,9.6997 229.1467,10.8997 223.8467,17.8997 C215.0467,29.4997 209.1467,42.6997 203.6467,56.0997 C200.0467,64.8997 196.8467,73.7997 196.3467,83.4997 C196.0467,89.1997 194.4467,94.7997 193.2467,100.4997 C191.4467,109.5997 189.6467,118.5997 187.6467,127.6997 C185.2467,138.5997 182.2467,149.4997 180.4467,160.4997 C179.4467,166.3997 180.2467,172.4997 180.2467,179.5997 M308.3467,120.1997 C304.8467,119.1997 302.7467,118.0997 300.6467,118.0997 C298.5467,118.1997 293.0467,126.6997 292.9467,128.9997 C292.6467,135.2997 292.2467,141.5997 291.8467,147.8997 C291.2467,156.2997 290.3467,164.6997 289.9467,173.1997 C289.6467,179.7997 289.9467,186.3997 289.8467,193.0997 C289.5467,204.9997 289.2467,216.8997 288.8467,228.8997 C288.7467,232.9997 290.3467,233.2997 293.2467,230.9997 C301.4467,224.3997 309.6467,217.7997 317.8467,211.0997 C319.1467,210.0997 320.1467,208.6997 321.3467,207.6997 C326.4467,203.5997 332.5467,200.3997 336.5467,195.4997 C345.7467,184.2997 354.3467,172.4997 362.4467,160.4997 C369.9467,149.3997 376.1467,137.3997 378.7467,124.0997 C380.2467,116.6997 377.8467,111.6997 371.9467,107.2997 C367.2467,103.7997 362.0467,102.9997 356.5467,102.5997 C343.9467,101.6997 331.9467,103.2997 321.3467,110.8997 C320.1467,111.7997 317.7467,110.9997 314.6467,110.9997 C312.8467,113.5997 310.3467,117.1997 308.3467,120.1997 M379.8467,183.5997 C381.3467,184.4997 382.2467,185.1997 384.3467,186.4997 C378.0467,186.3997 375.4467,188.4997 375.6467,194.2997 C375.7467,196.0997 371.4467,197.7997 369.8467,199.9997 C366.1467,205.1997 363.0467,210.7997 359.3467,215.9997 C355.3467,221.7997 352.2467,228.6997 343.5467,229.1997 C339.4467,229.3997 335.0467,237.1997 336.1467,241.2997 C332.8467,241.9997 329.5467,242.5997 326.1467,243.2997 L326.1467,244.7997 C326.9467,245.3997 327.8467,245.9997 328.0467,246.0997 C326.4467,248.2997 324.8467,250.3997 323.1467,252.8997 C319.6467,255.1997 315.4467,257.5997 311.4467,260.4997 C308.3467,262.7997 305.7467,265.7997 302.4467,267.8997 C300.3467,269.2997 297.5467,269.6997 295.0467,270.2997 C291.4467,271.1997 288.8467,273.0997 288.6467,276.8997 C288.2467,285.8997 288.3467,294.8997 287.7467,303.7997 C286.8467,317.6997 285.3467,331.5997 284.4467,345.5997 C283.6467,357.9997 283.3467,370.3997 282.9467,382.7997 C282.6467,392.7997 281.7467,402.8997 282.6467,412.7997 C283.8467,425.2997 282.5467,437.5997 282.1467,449.9997 C281.9467,455.3997 282.0467,460.5997 282.6467,465.9997 C283.0467,469.8997 281.0467,473.9997 280.6467,477.9997 C280.2467,481.5997 280.4467,485.1997 280.4467,488.7997 C280.3467,494.2997 280.4467,499.7997 280.2467,505.2997 C279.9467,514.3997 279.8467,523.4997 278.7467,532.4997 C278.2467,536.7997 280.7467,541.4997 277.0467,545.2997 C280.8467,553.6997 275.9467,562.1997 276.9467,570.5997 C276.9467,570.8997 277.3467,571.2997 277.2467,571.4997 C273.1467,579.0997 277.7467,587.3997 275.1467,595.2997 C273.5467,600.1997 272.8467,605.5997 272.5467,610.7997 C272.2467,616.6997 273.3467,622.6997 273.2467,628.5997 C273.1467,633.1997 272.0467,637.6997 271.6467,642.2997 C271.1467,647.7997 271.1467,653.3997 270.4467,658.7997 C269.7467,664.2997 268.6467,669.7997 267.2467,675.0997 C266.4467,678.0007 264.5467,680.5007 266.8467,683.3997 C267.0467,683.7007 266.3467,684.7997 266.0467,685.5007 C262.6467,693.0997 259.1467,700.7997 255.8467,708.3997 C254.2467,712.2007 252.8467,716.0997 251.3467,720.0007 C251.1467,720.5997 250.4467,721.2997 250.6467,721.7997 C252.4467,728.5007 248.0467,733.2997 245.9467,738.8997 C244.2467,743.5997 243.4467,748.7007 242.3467,753.5997 C242.2467,754.0997 241.9467,754.5997 240.9467,755.0007 L240.9467,751.8997 C241.1467,748.7007 243.3467,745.2997 238.9467,742.7007 C237.9467,742.0997 238.4467,738.5997 238.6467,736.5007 C239.9467,721.7007 241.8467,706.8997 242.6467,692.0997 C243.5467,674.5997 244.4467,657.0007 243.7467,639.5007 C242.7467,615.2007 244.1467,591.2007 246.4467,567.0007 C247.7467,552.5997 247.2467,538.0997 247.6467,523.7007 C248.1467,506.7007 248.7467,489.7997 249.2467,472.7997 C249.7467,455.5007 250.1467,438.2007 250.4467,420.8997 C250.7467,392.5007 250.7467,364.0997 251.2467,335.6997 C251.5467,319.5997 252.6467,303.3997 253.3467,287.2997 C253.5467,283.8997 252.5467,282.1997 248.5467,282.3997 C244.0467,282.6997 239.3467,281.8997 234.8467,281.5997 C234.5467,281.5997 233.9467,281.5997 233.8467,281.3997 C231.4467,276.5997 226.3467,277.4997 222.6467,275.6997 C220.7467,274.6997 218.3467,271.1997 215.7467,269.3997 C213.8467,268.0997 211.6467,267.3997 209.4467,266.4997 C208.8467,266.2997 207.7467,266.4997 207.5467,266.0997 C204.2467,258.7997 194.5467,262.4997 191.7467,256.8997 C188.1467,257.3997 185.4467,257.2997 183.1467,258.2997 C181.1467,259.0997 178.0467,261.1997 178.2467,262.4997 C178.7467,267.5997 174.6467,268.9997 171.9467,271.1997 C167.9467,274.3997 167.0467,278.6997 165.9467,283.0997 C165.6467,284.4997 164.1467,286.0997 162.8467,286.5997 C159.9467,287.5997 158.9467,289.0997 158.0467,292.1997 C157.1467,295.1997 153.7467,297.2997 151.4467,299.8997 C148.6467,302.9997 145.3467,305.8997 143.3467,309.5007 C136.6467,321.3997 127.7467,331.3997 117.4467,339.8997 C107.6467,347.8997 96.8467,355.2997 85.5467,360.8997 C65.5467,370.7997 44.3467,377.1997 21.6467,376.8997 C16.0467,376.7997 10.3467,377.0007 4.8467,375.8997 C-0.7533,374.7997 -1.6533,371.0007 2.9467,367.6997 C10.4467,362.1997 18.3467,357.2997 26.3467,352.5997 C39.7467,344.8997 51.2467,334.8997 61.6467,323.6997 C71.2467,313.2997 80.1467,302.3997 88.9467,291.2997 C98.3467,279.4997 106.7467,266.9997 116.3467,255.2997 C129.7467,238.8997 143.9467,222.9997 157.5467,206.6997 C159.6467,204.1997 160.3467,200.6997 161.7467,197.5997 C162.6467,195.3997 164.1467,193.2997 164.3467,191.0997 C165.3467,182.8997 166.2467,174.6997 166.5467,166.3997 C166.6467,163.0997 164.2467,159.5997 164.7467,156.4997 C165.7467,149.3997 168.0467,142.4997 169.5467,135.4997 C170.3467,131.7997 170.5467,127.9997 170.9467,124.1997 C172.5467,111.1997 175.0467,98.5997 181.7467,86.7997 C185.8467,79.3997 186.5467,70.1997 190.0467,62.3997 C195.5467,50.0997 201.0467,37.5997 208.3467,26.2997 C216.4467,13.7997 226.9467,3.2997 242.8467,0.4997 C249.0467,-0.6003 254.6467,1.0997 259.1467,4.4997 C269.6467,12.3997 277.1467,22.8997 283.1467,34.5997 C284.3467,36.8997 285.9467,39.1997 287.5467,41.1997 C293.0467,48.0997 296.4467,55.5997 296.5467,64.5997 C296.6467,69.2997 298.0467,73.9997 299.3467,78.5997 C299.5467,79.3997 302.3467,80.0997 303.6467,79.6997 C309.3467,78.1997 314.8467,75.6997 320.6467,74.6997 C332.3467,72.6997 344.1467,70.2997 355.9467,70.1997 C371.0467,70.0997 383.8467,77.3997 393.3467,88.9997 C397.5467,94.0997 399.1467,101.2997 401.9467,107.4997 C405.6467,115.5997 403.5467,124.0997 401.4467,131.6997 C399.4467,138.7997 398.6467,146.7997 392.9467,152.5997 C392.6467,152.8997 392.1467,153.4997 392.2467,153.8997 C393.9467,164.1997 383.9467,170.3997 383.1467,179.7997 C382.8467,181.0997 381.2467,181.9997 379.8467,183.5997" id="Fill-1" fill="#000000" mask="url(#mask-2)"></path>
            </g>
            <path d="M674.7466,326.9996 C675.5466,327.0996 676.3466,327.1996 677.2466,327.2996 C678.5466,319.3996 679.8466,311.4996 681.1466,303.6996 C680.3466,303.5996 679.4466,303.3996 678.6466,303.2996 C677.3466,311.0996 676.0466,319.0996 674.7466,326.9996 M623.4466,255.4996 C615.7466,261.4996 608.2466,267.1996 600.8466,272.8996 C601.0466,273.1996 601.2466,273.5996 601.4466,273.8996 C607.6466,270.9996 613.7466,267.7996 620.1466,265.3996 C624.9466,263.5996 626.4466,261.1996 623.4466,255.4996 M657.8466,210.9996 C649.5466,210.9996 642.8466,214.5996 636.5466,218.6996 C635.6466,219.2996 636.8466,223.5996 637.4466,226.0996 C637.5466,226.4996 640.4466,226.7996 641.1466,226.1996 C646.8466,221.2996 652.2466,216.0996 657.8466,210.9996 M530.4466,374.1006 C530.8466,374.6996 531.1466,375.1996 531.5466,375.7996 C536.7466,374.1996 542.0466,373.1006 546.9466,370.8996 C564.6466,362.9996 582.5466,355.2996 599.8466,346.4996 C612.8466,339.8996 626.3466,333.3996 633.4466,319.0996 C636.1466,313.5996 638.8466,308.8996 636.4466,302.3996 C633.6466,294.7996 631.9466,286.8996 629.3466,277.7996 C617.0466,287.6996 605.7466,296.8996 594.4466,306.0996 C594.6466,306.4996 594.8466,306.7996 595.0466,307.1996 C596.8466,306.2996 598.6466,305.2996 600.5466,304.4996 C604.7466,302.7996 608.8466,300.1996 613.1466,299.7996 C617.0466,299.3996 621.2466,301.0996 625.1466,302.3996 C626.4466,302.7996 628.1466,305.1996 627.9466,306.0996 C627.5466,307.4996 625.6466,308.8996 624.1466,309.3996 C621.1466,310.5996 617.3466,310.3996 614.8466,312.0996 C601.5466,320.9996 588.4466,330.1996 575.4466,339.4996 C561.6466,349.4996 547.9466,359.7996 534.3466,369.9996 C532.7466,370.9996 531.6466,372.6006 530.4466,374.1006 M526.6466,252.7996 C530.7466,252.3996 534.7466,252.6996 538.2466,251.4996 C549.6466,247.4996 560.9466,243.3996 571.9466,238.5996 C585.9466,232.4996 599.5466,225.6996 613.2466,219.0996 C614.4466,218.4996 615.8466,216.4996 615.7466,215.3996 C614.4466,207.1996 613.1466,198.9996 611.1466,190.8996 C609.0466,182.5996 606.3466,174.3996 603.7466,166.2996 C602.4466,162.3996 600.5466,158.5996 598.6466,153.8996 C589.7466,160.6996 581.4466,166.2996 574.0466,172.8996 C568.3466,177.8996 564.0466,184.3996 558.5466,189.5996 C541.4466,205.7996 530.5466,226.0996 521.4466,247.1996 C515.4466,261.0996 511.6466,275.9996 507.8466,290.6996 C504.5466,303.3996 502.0466,316.4996 500.5466,329.4996 C498.2466,349.6996 503.3466,368.1996 515.3466,384.8996 C522.9466,395.4996 531.5466,405.1996 543.0466,411.1996 C551.6466,415.6996 561.3466,417.4996 571.3466,417.7996 C585.3466,418.1996 599.3466,417.1006 611.6466,410.9996 C628.2466,402.6996 643.6466,391.9996 655.0466,376.7996 C656.1466,375.2996 656.8466,372.8996 656.5466,371.1006 C654.9466,362.9996 653.1466,354.8996 650.9466,346.9996 C649.7466,342.4996 647.6466,338.1996 646.2466,334.7996 C634.4466,342.0996 623.6466,349.4996 612.1466,355.6996 C596.4466,364.1996 579.9466,371.2996 564.2466,379.6996 C551.5466,386.6006 538.7466,391.3996 524.0466,388.4996 C519.9466,387.6996 517.7466,385.1996 518.5466,381.6996 C519.5466,377.4996 521.1466,372.6996 524.0466,369.9996 C534.2466,360.6006 545.2466,351.9996 555.9466,343.0996 C557.1466,342.0996 558.3466,340.8996 559.4466,339.7996 C559.1466,339.3996 558.9466,338.9996 558.6466,338.5996 C554.3466,339.9996 549.9466,341.4996 545.5466,342.6996 C544.1466,343.0996 541.5466,343.3996 541.2466,342.7996 C540.3466,340.7996 539.1466,337.8996 539.9466,336.3996 C541.8476,333.0996 544.5466,329.8996 547.6466,327.4996 C559.2466,318.4996 571.3476,310.0996 582.9466,301.0996 C587.4466,297.5996 591.0466,292.9996 595.1466,288.8996 C594.8476,288.5996 594.5466,288.1996 594.3476,287.8996 C579.6466,297.9996 564.8476,308.1996 550.1466,318.2996 C548.9466,319.0996 546.6466,320.0996 546.1466,319.5996 C544.7466,318.2996 543.6466,316.3996 542.9466,314.4996 C542.2466,312.5996 542.6466,310.1996 541.9466,308.2996 C539.4466,302.2996 540.5466,299.6996 546.6466,297.3996 C547.7466,296.9996 548.7466,296.4996 549.6466,295.7996 C555.8476,291.4996 562.1466,287.1996 568.2466,282.6996 C573.3466,278.9996 578.7466,275.3996 583.2466,271.0996 C592.2466,262.5996 601.9466,254.8996 612.1466,248.0996 C620.7466,242.2996 620.9466,241.9996 618.5466,231.6996 C617.6466,227.6996 616.6466,227.1996 612.9466,228.9996 C594.5466,238.4996 576.3476,248.2996 557.5466,256.7996 C551.0466,259.7996 543.1466,260.0996 535.8476,260.6996 C530.4466,261.1996 526.8466,257.3996 526.6466,252.7996 M667.0466,348.5996 C668.0466,340.2996 668.8466,332.5996 669.8466,324.8996 C671.2466,313.8996 672.0466,302.7996 674.6466,291.9996 C675.7466,287.2996 676.8466,280.7996 683.1466,278.7996 C685.2466,278.0996 688.1466,277.0996 689.4466,277.9996 C691.6466,279.4996 694.3466,282.5996 694.2466,284.7996 C693.7466,294.4996 692.8466,304.3996 691.0466,313.8996 C688.0466,329.1996 684.0466,344.2996 676.7466,358.2996 C675.0466,361.4996 674.7466,365.8996 675.0466,369.6996 C675.7466,377.3996 677.0466,385.1006 678.5466,392.6996 C679.3466,396.8996 681.1466,400.8996 681.9466,405.1006 C683.1466,412.1996 684.0466,419.3996 684.6466,426.6006 C684.7466,427.8996 682.9466,430.6006 682.0466,430.6006 C679.7466,430.6006 676.5466,429.9996 675.3466,428.4996 C669.0466,419.8996 662.8466,411.1006 663.4466,399.6006 C663.4466,399.1006 663.4466,398.6006 663.3466,398.1006 C662.3466,395.6006 661.3466,392.9996 660.3466,390.4996 C658.3466,392.1006 656.3466,393.7996 654.2466,395.1996 C644.3466,401.4996 634.4466,407.7996 624.4466,413.8996 C620.6466,416.1996 616.5466,417.8996 612.6466,420.1006 C604.7466,424.4996 595.8466,423.6996 587.4466,425.2996 C575.4466,427.6996 563.5466,427.4996 551.8466,424.3996 C531.8466,419.1006 516.9466,406.7996 505.5466,389.7996 C499.2466,380.2996 490.8466,371.7996 488.4466,360.3996 C486.3466,350.3996 484.4466,339.8996 485.4466,329.9996 C486.9466,314.7996 490.2466,299.5996 494.0466,284.6996 C496.8466,273.6996 501.5466,263.1996 506.0466,252.6996 C511.2466,240.6996 516.4466,228.5996 522.9466,217.2996 C530.1466,204.8996 538.3466,192.9996 546.8466,181.4996 C556.5466,168.4996 568.7466,157.7996 582.5466,149.4996 C590.6466,144.6996 599.5466,140.9996 608.3466,137.6996 C632.4466,128.6996 657.8466,128.0996 683.0466,127.7996 C697.0466,127.5996 711.1466,129.7996 723.3466,136.8996 C730.7466,141.1996 737.3466,147.6996 742.9466,154.2996 C749.0466,161.4996 753.7466,169.9996 758.7466,177.9996 C766.6466,190.5996 771.7466,204.2996 774.4466,218.8996 C776.5466,230.0996 779.2466,241.0996 781.2466,252.2996 C783.1466,263.1996 784.5466,274.1996 786.1466,285.1996 C786.3466,286.6006 785.5466,288.1006 785.6466,289.4996 C786.0466,294.2996 786.9466,298.9996 787.2466,303.6996 C787.4466,306.9996 786.9466,310.3996 786.9466,313.7996 C786.9466,318.9996 787.4466,324.0996 787.3466,329.2996 C787.2466,335.5996 786.6466,341.7996 786.3466,348.0996 C786.3466,348.3996 786.5466,348.9996 786.3466,349.0996 C781.0466,353.1996 783.7466,359.1996 782.7466,364.1996 C781.6466,369.6996 780.7466,375.2996 779.5466,380.6996 C779.0466,382.6996 778.1466,384.7996 776.7466,386.2996 C773.5466,389.7996 771.1466,393.6006 769.8466,398.2996 C769.4466,399.9996 767.6466,401.2996 766.2466,402.9996 C766.7466,403.6996 767.5466,404.6996 767.5466,404.7996 C763.9466,409.6006 760.6466,413.8996 757.7466,417.7996 C758.4466,419.7996 759.8466,422.1006 759.4466,422.4996 C757.4466,424.3996 754.8476,425.8996 752.5466,427.4996 C752.1466,427.1996 751.7466,426.7996 751.3466,426.4996 C751.0466,429.2996 750.7466,431.9996 750.3466,435.2996 C747.5466,435.6006 745.1466,436.3996 746.0466,441.6996 C746.4466,444.1006 742.4466,447.7996 739.7466,449.9996 C735.5466,453.3996 730.6466,455.8996 726.2466,458.9996 C725.3466,459.6006 725.4466,461.6006 724.5466,462.3996 C720.3466,466.4996 716.2466,470.6996 711.5466,474.1006 C709.7466,475.4996 706.5466,474.8996 704.0466,475.6006 C703.3466,475.7996 702.8466,476.9996 702.2466,477.7996 C702.7466,478.3996 703.2466,478.8996 703.7466,479.4996 C700.8466,480.6996 697.8466,481.8996 695.0466,483.1996 C694.0466,483.6996 692.8466,484.2996 692.3466,485.1996 C689.3466,490.4996 683.4466,489.6006 678.9466,491.6006 C677.9466,492.1006 676.1466,490.9996 674.7466,490.6006 C674.3466,493.6996 666.4466,491.7996 670.8466,498.4996 C666.7466,498.1996 663.7466,497.9996 660.6466,497.6996 C660.5466,498.1006 660.5466,498.3996 660.4466,498.7996 C661.3466,499.3996 662.1466,499.9996 663.1466,500.6996 C662.7466,501.1996 662.4466,501.6996 662.0466,501.8996 C653.4466,505.8996 645.1466,511.7996 636.1466,513.4996 C622.4466,516.1996 610.6466,522.8996 598.1466,527.8996 C588.2466,531.7996 578.7466,536.6996 568.1466,539.0996 C563.5466,540.1996 559.2466,542.7996 554.7466,544.6996 C554.4466,544.0996 554.2466,543.4996 553.9466,542.8986 C556.1466,541.9996 558.4466,541.1996 560.5466,540.1996 C577.1466,532.0996 594.0466,524.3986 610.3466,515.5996 C628.7466,505.5996 646.9466,495.0996 664.7466,483.8996 C676.0466,476.7996 686.9466,468.6996 696.9466,459.6996 C705.1466,452.2996 711.6466,443.0996 718.8466,434.5996 C731.2466,420.0996 740.8466,403.7996 749.0466,386.7996 C757.0466,370.2996 762.5466,352.6996 763.9466,334.3996 C765.3466,315.9996 766.5466,297.5996 766.2466,279.1996 C765.9466,259.1996 764.4466,239.1996 758.6466,219.8996 C755.0466,207.8996 752.6466,195.1996 746.9466,184.2996 C738.6466,168.5996 729.0466,152.7996 710.8466,146.2996 C701.9466,143.0996 692.3466,140.3996 682.9466,140.1996 C668.6466,139.7996 654.2466,141.4996 639.8466,142.8996 C632.5466,143.5996 625.3466,145.6996 618.0466,146.9996 C614.9466,147.5996 614.1466,148.5996 615.2466,152.0996 C617.1466,157.9996 618.1466,164.1996 619.4466,170.2996 C619.6466,171.2996 619.5466,172.2996 619.8476,173.2996 C622.1466,180.2996 624.6466,187.2996 626.9466,194.3996 C628.3476,198.5996 629.5466,202.8996 630.8476,207.1996 C631.6466,209.7996 633.0466,210.2996 635.7466,209.2996 C648.1466,204.7996 660.8476,200.8996 673.2466,196.2996 C682.3476,192.9996 689.2466,198.4996 696.6466,201.5996 C697.9466,202.0996 698.9466,204.9996 698.8476,206.6996 C698.7466,207.7996 696.3476,209.1996 694.8476,209.4996 C690.8476,210.0996 686.6466,209.6996 682.7466,210.6996 C679.1466,211.5996 675.4466,213.2996 672.4466,215.4996 C663.1466,222.3996 654.0466,229.4996 645.1466,236.7996 C643.8476,237.8996 643.5466,240.7996 643.7466,242.7996 C643.9466,245.1996 645.0466,247.4996 645.7466,249.8996 C647.7466,257.4996 649.7466,265.0996 651.7466,272.6996 C653.5466,279.4996 655.2466,286.2996 656.8476,293.1996 C657.2466,295.0996 657.4466,297.2996 656.8476,299.0996 C653.7466,308.8996 657.9466,317.5996 660.4466,326.6996 C661.7466,331.2996 661.8476,336.1996 663.0466,340.7996 C663.4466,343.3996 665.2466,345.4996 667.0466,348.5996" id="Fill-3" fill="#000000"></path>
            <path d="M1531.3472,290.4 C1531.8472,290.7 1532.4472,291 1532.9472,291.3 C1539.0462,287.3 1545.1472,283.4 1551.2462,279.4 C1554.1472,277.5 1556.4472,274.5 1560.7462,275.6 C1561.6472,275.8 1563.1472,274.3 1564.1472,273.3 C1568.6472,268.8 1572.5462,263.8 1579.6472,262.3 C1583.2462,261.5 1587.6472,257.6 1588.8472,254.1 C1590.6472,249 1589.8472,243 1590.1472,237.9 C1587.2462,236.9 1585.7462,236.1 1584.2462,236 C1579.8472,235.6 1574.6472,234 1571.2462,235.7 C1565.0462,238.9 1558.7462,243.2 1554.6472,248.7 C1547.3472,258.2 1541.5462,268.9 1535.4472,279.3 C1533.4472,282.7 1532.6472,286.7 1531.3472,290.4 M1529.9472,232.5 C1530.0462,232.8 1530.5462,234.2 1530.9472,235.5 C1529.4472,241.8 1521.6472,242.8 1519.7462,249.2 C1518.7462,252.7 1514.6472,255.3 1512.1472,258.4 C1509.8472,261.4 1507.9472,264.7 1505.5462,267.6 C1504.1472,269.3 1502.1472,270.5 1500.2462,271.7 C1499.1472,272.4 1497.8472,272.6 1496.5462,273 C1497.3472,274.1 1498.1472,275.2 1499.4472,277 C1495.5462,278.6 1491.7462,280.2 1487.2462,282 C1489.0472,283.4 1490.2462,284.2 1490.7462,284.6 C1486.0472,292.4 1481.6472,300 1476.9472,307.4 C1476.0462,308.9 1474.3472,309.8 1472.9472,311.1 C1475.4472,316.3 1479.3472,318.2 1484.9472,316 C1493.9472,312.6 1502.9472,309.4 1511.8472,305.7 C1515.4472,304.2 1518.8472,302 1522.0462,299.7 C1523.5462,298.6 1525.0462,296.6 1525.2462,294.9 C1527.2462,275.6 1537.7462,260.5 1549.2462,246 C1555.8472,237.7 1563.5462,230.2 1571.3472,223.2 C1575.4472,219.5 1580.9472,217 1586.2462,215 C1587.8472,214.4 1591.1472,216.6 1592.9472,218.3 C1593.9472,219.3 1594.0462,221.8 1593.7462,223.5 C1592.5462,230.9 1595.3472,236.8 1600.1472,242.2 C1603.0462,245.6 1606.0462,246.4 1609.4472,243.7 C1612.3472,241.4 1613.8472,242.5 1615.0462,245.3 C1616.6472,248.9 1618.4472,252.3 1619.7462,256 C1620.0462,256.8 1618.8472,259.2 1618.1472,259.3 C1610.5462,260.3 1608.0462,267.2 1603.5462,271.7 C1599.8472,275.4 1596.9472,278.6 1590.9472,277.8 C1584.9472,277 1580.6472,281.4 1576.1472,284.7 C1573.0462,287 1570.0462,289.5 1566.9472,291.8 C1564.9472,293.3 1562.1472,293.3 1561.6472,297.2 C1561.3472,299.2 1557.1472,300.7 1554.3472,302.7 C1554.6472,301.4 1554.8472,300.8 1555.1472,299.4 C1552.8472,301.1 1551.0462,302.4 1549.1472,303.7 C1544.2462,307 1539.5462,310.7 1534.3472,313.2 C1530.4472,315.1 1528.6472,317 1529.1472,321.8 C1529.9472,329.3 1534.0462,335.2 1538.7462,340.5 C1545.6472,348.1 1553.0462,355.2 1560.2462,362.6 C1563.0462,365.4 1566.1472,368.1 1568.5462,371.2 C1571.2462,374.7 1573.4472,375.1 1576.3472,371.799 C1577.2462,370.7 1578.5462,369.9 1579.6472,368.9 C1580.1472,369.1 1580.5472,369.2 1581.0472,369.4 C1580.3472,372 1579.9472,374.799 1578.7462,377.2 C1577.2462,380.299 1577.1472,382.9 1578.7462,386.1 C1583.4472,395.4 1587.6472,405 1592.4472,414.299 C1593.2462,415.799 1596.3472,416 1598.2462,416.7 C1597.7462,419 1595.9472,422.2 1596.5472,424.799 C1597.6472,430.5 1600.4472,436 1601.7462,441.7 C1603.3472,448.299 1605.1472,455.2 1604.9472,461.9 C1604.6472,479.299 1602.2462,496.6 1597.8472,513.6 C1596.7462,517.9 1594.0462,521.799 1592.1472,525.9 C1591.8472,526.5 1591.0472,527.2 1591.1472,527.5 C1593.7462,532.299 1588.8472,533.4 1586.9472,536 C1583.4472,540.9 1580.4472,546.1 1576.6472,550.7 C1574.7462,553 1571.7462,554.4 1569.0472,555.799 C1562.8472,558.9 1556.5472,562 1550.1472,564.6 C1548.0472,565.5 1545.4472,565.1 1541.7462,565.5 C1541.5472,565.799 1540.7462,567.4 1539.4472,568.7 C1538.7462,569.4 1537.3472,569.799 1536.2462,569.799 C1532.0472,570 1527.8472,570.1 1523.6472,570.2 C1522.3472,570.2 1520.9472,570.7 1519.9472,570.299 C1511.1472,566.7 1502.2472,563.2 1493.7472,559 C1487.6472,556 1482.1472,551.9 1476.2472,548.4 C1471.1472,545.4 1466.0472,542.099 1460.5472,540 C1453.6472,537.299 1452.3472,536.5 1451.7472,529.5 C1447.7472,533.5 1445.1472,529.299 1441.8472,528.299 C1434.3472,526.2 1442.9472,522.5 1441.0472,519.6 C1446.4472,521.9 1451.8472,524.1 1457.1472,526.5 C1464.4472,529.799 1471.4472,533.799 1479.5472,535.299 C1487.3472,536.7 1494.7462,539.799 1502.5472,540.799 C1508.9472,541.6 1515.5472,540.4 1522.1472,540 C1534.4472,539.2 1544.2462,532.6 1554.0472,526.299 C1558.4472,523.5 1562.2462,520.2 1563.7462,514.4 C1564.7462,510.6 1567.9472,507.4 1569.7462,503.799 C1574.2462,494.5 1577.1472,484.7 1577.3472,474.2 C1577.4472,465 1578.1472,455.7 1578.6472,446.5 C1578.6472,445.5 1578.5472,444.5 1578.4472,443.5 C1577.8472,438 1577.1472,437.5 1572.0472,439.2 C1569.8472,438.799 1571.9472,433.5 1567.7462,435.4 C1567.5472,434.6 1567.0472,433.799 1567.1472,433.1 C1567.3472,432.4 1567.9472,431.5 1568.6472,431.2 C1577.2462,428.1 1575.6472,422 1573.1472,415.7 C1570.7462,409.7 1568.1472,403.799 1565.3472,397.299 C1557.0462,404.2 1553.0462,412.4 1549.0462,420.2 C1544.8472,428.5 1537.4472,435.7 1538.1472,445.5 C1534.8472,446 1531.5462,446.4 1527.4472,447 C1527.2462,445.9 1527.1472,444.6 1526.8472,443.299 C1526.3472,440.6 1525.7462,438 1525.1472,435.299 C1525.0472,434.6 1524.5472,433.7 1524.8472,433.2 C1527.0462,428.6 1529.6472,424.1 1531.6472,419.4 C1532.9472,416.4 1533.4472,413 1534.2462,409.799 C1535.2462,405.799 1536.5472,401.799 1537.2462,397.7 C1537.6472,395.6 1536.9472,393.4 1536.7462,391.2 C1534.6472,391.7 1532.5472,392.1 1530.3472,392.6 C1529.6472,392.799 1528.9472,393 1528.2462,393.299 C1527.9472,392.9 1527.7462,392.5 1527.4472,392.2 C1531.0462,389.299 1534.6472,386.299 1538.2462,383.4 C1540.5472,384.9 1542.9472,386.4 1546.5472,388.8 C1545.7462,392.1 1544.5472,396 1543.7462,400.1 C1543.3472,402.4 1543.6472,404.9 1543.6472,407.8 C1544.7462,407.4 1545.8472,407.3 1546.4472,406.8 C1550.7472,402.6 1555.0472,398.4 1558.9472,393.8 C1560.0472,392.5 1560.8472,389.6 1560.1472,388.2 C1554.8472,378.1 1549.1472,367.9 1539.8472,361 C1532.3472,355.5 1527.5462,348.6 1524.4472,340.3 C1522.8472,335.8 1521.6472,331.1 1520.5462,326.5 C1519.6472,322.5 1517.2462,320.8 1514.3472,323.3 C1508.4472,328.3 1501.2462,327.9 1494.6472,329.1 C1487.9472,330.3 1480.9472,330.4 1474.0472,330.7 C1471.3472,330.8 1468.5472,329.9 1464.6472,329.3 C1462.6472,325.4 1459.5472,320.2 1460.1472,313.9 C1460.1472,313.6 1460.1472,313.2 1460.2462,312.9 C1464.8472,305.8 1469.3472,298.6 1474.0472,291.6 C1475.5472,289.4 1477.2462,287.3 1478.9472,285.2 C1482.5472,280.8 1486.0472,276.3 1489.7472,272 C1490.4472,271.3 1492.1472,271.5 1493.7472,271.2 C1492.7472,261.3 1501.3472,256.1 1505.5472,248.7 C1509.3472,241.9 1516.4472,236.6 1519.1472,229.5 C1521.9472,222 1528.6472,217.9 1531.6472,210.5 C1534.4472,203.6 1541.5472,198.6 1545.7472,192.2 C1551.2472,183.8 1555.7472,174.7 1560.8472,165.9 C1562.9472,162.4 1565.3472,159.1 1567.6472,155.7 C1568.1472,155 1568.6472,154.4 1569.0472,153.7 C1572.7472,146.4 1576.8472,139.2 1580.0472,131.6 C1583.1472,124.4 1585.5472,116.8 1588.0472,109.3 C1590.7472,100.8 1593.7472,92.3 1595.6472,83.6 C1598.4472,70.5 1601.2472,57.3 1602.4472,44 C1603.6472,31 1602.9472,17.9 1603.1472,4.8 C1603.1472,3.2 1603.5472,1.6 1603.7472,-1.13686838e-13 C1611.0472,0.4 1611.6472,7.1 1614.1472,11.2 C1617.8472,17.3 1622.7472,22.7 1624.1472,30.4 C1626.5472,42.8 1630.5472,54.6 1630.2472,67.7 C1629.9472,80.4 1627.9472,92.7 1625.3472,105 C1625.1472,105.9 1624.7472,107 1624.0472,107.6 C1619.1472,111.8 1619.1472,118 1617.2462,123.5 C1615.5472,128.3 1614.7462,133.6 1612.3472,138 C1609.8472,142.4 1605.8472,146.1 1602.3472,149.9 C1600.6472,151.7 1599.1472,153.1 1600.7462,155.9 C1601.1472,156.6 1599.9472,158.5 1599.2462,159.7 C1597.8472,162.2 1596.3472,164.6 1594.7462,166.9 C1593.5472,168.5 1591.9472,169.9 1590.5472,171.3 C1589.1472,172.7 1587.8472,174.3 1586.3472,175.5 C1575.0472,184.4 1567.3472,196.6 1556.7472,206.2 C1552.7472,209.8 1549.3472,213 1545.4472,213.7 C1544.2472,217.7 1543.5472,220.9 1542.2472,223.9 C1541.8472,224.9 1540.1472,225.3 1538.9472,225.9 C1537.7472,226.4 1536.3472,226.5 1535.3472,227.2 C1534.0462,228.5 1532.3472,230.3 1529.9472,232.5" id="Fill-5" fill="#000000"></path>
            <path d="M1133.0464,240.0997 C1132.5464,240.4997 1131.9464,240.8997 1131.4464,241.2997 C1129.7464,249.7997 1130.2464,258.2997 1132.9464,266.5997 C1133.4464,267.9997 1135.1474,269.6997 1136.6474,269.9997 C1137.7464,270.2997 1139.7464,268.9997 1140.6474,267.8997 C1142.6474,265.3997 1144.7464,262.6997 1145.9464,259.6997 C1146.7464,257.9997 1146.4464,255.4997 1145.8474,253.4997 C1145.3474,251.6997 1143.9464,250.0997 1142.5464,248.7997 C1139.5464,245.7997 1136.2464,242.9997 1133.0464,240.0997 M1120.3474,446.5997 C1109.2464,450.9997 1099.6474,455.5997 1093.3474,466.2997 C1101.6474,466.2997 1108.6474,466.4997 1115.7464,466.1997 C1117.3474,466.0997 1120.0464,464.4997 1120.1474,463.2997 C1120.6474,458.0997 1120.3474,452.7997 1120.3474,446.5997 M1154.3474,323.3997 C1160.8474,331.1997 1166.2464,338.2997 1172.2464,344.6997 C1175.9464,348.5997 1180.9464,348.2997 1185.4464,345.2997 C1192.0464,340.9997 1195.7464,334.5997 1197.5464,327.1997 C1198.7464,322.5997 1196.8474,319.9997 1192.0464,318.3997 C1179.4464,314.0997 1167.8474,317.8997 1154.3474,323.3997 M1060.7464,315.7997 C1061.2464,316.5997 1061.7464,317.2997 1062.2464,318.0997 C1065.1474,317.1997 1068.2464,316.6997 1070.7464,315.1997 C1081.3474,308.7997 1091.7464,302.0997 1102.1474,295.3997 C1108.3474,291.3997 1114.4464,287.1997 1120.4464,282.8997 C1121.5464,282.0997 1122.7464,279.9997 1122.4464,278.8997 C1119.2464,268.1997 1116.5464,257.4997 1117.2464,246.1997 C1117.3474,245.3997 1116.5474,244.1997 1115.8474,243.8997 C1115.2464,243.6997 1114.0464,244.3997 1113.5464,244.9997 C1110.9464,247.9997 1108.3474,250.9997 1105.9464,254.0997 C1099.0464,263.2997 1092.1474,272.5997 1085.3474,281.8997 C1077.1474,293.1997 1068.9464,304.4997 1060.7464,315.7997 M1023.2464,413.3997 C1024.9464,417.1997 1028.5464,416.6997 1031.6474,416.9997 C1043.5464,417.9997 1054.6474,414.1997 1065.5464,410.4997 C1076.3474,406.8997 1086.9464,402.7997 1097.5464,398.4997 C1105.6474,395.1997 1113.4464,391.1997 1121.4464,387.6997 C1124.2464,386.4997 1124.9464,384.6997 1124.6474,381.7997 C1124.2464,377.1997 1124.2464,372.4997 1124.2464,367.8997 C1124.1474,362.2997 1124.3474,356.5997 1124.1474,350.9997 C1124.1474,349.6997 1123.1474,347.4997 1122.4464,347.3997 C1118.5464,347.0997 1114.9464,345.0997 1110.7464,347.9997 C1101.6474,354.2997 1091.8474,359.5997 1082.7464,365.9997 C1062.0464,380.3997 1041.2464,394.9997 1023.2464,413.3997 M1071.8474,454.2997 C1073.7464,455.1997 1075.0464,455.7997 1076.3474,456.3997 C1076.6474,455.0997 1076.7464,453.5997 1077.3474,452.3997 C1078.7464,449.4997 1079.6474,445.9997 1081.9464,444.1997 C1092.8474,435.5997 1104.7464,429.0997 1118.8474,427.5997 C1119.9464,427.4997 1121.6474,425.9997 1121.7464,425.0997 C1122.4464,416.1997 1122.7464,407.2997 1123.2464,397.6997 C1114.9464,400.0997 1108.3474,403.6997 1101.4464,407.0997 C1084.6474,415.6997 1067.4464,423.5997 1048.5464,426.6997 C1038.5464,428.2997 1028.6474,426.9997 1018.9464,424.1997 C1011.7464,422.0997 1011.8474,413.1997 1015.0464,408.2997 C1020.7464,399.6997 1028.9464,393.7997 1037.5464,388.2997 C1045.2464,383.3997 1052.4464,377.6997 1060.0464,372.6997 C1082.0464,358.1997 1104.2464,343.7997 1126.3474,329.2997 C1129.9464,326.8997 1135.1474,325.2997 1136.6474,321.9997 C1137.8474,319.2997 1134.9464,314.4997 1133.4464,310.7997 C1131.3474,305.2997 1128.8474,299.8997 1126.1474,293.3997 C1122.9464,295.5997 1120.2464,297.4997 1117.4464,299.3997 C1106.6474,306.7997 1096.4464,315.1997 1084.9464,321.2997 C1077.4464,325.1997 1068.1474,325.7997 1059.5464,327.4997 C1058.8474,327.5997 1056.8474,325.1997 1056.5464,323.6997 C1055.4464,316.7997 1059.0464,311.0997 1062.4464,305.6997 C1067.0464,298.4997 1072.5464,291.8997 1077.5464,284.8997 C1082.8474,277.3997 1088.0464,269.6997 1093.2464,262.0997 C1093.3474,261.9997 1093.3474,261.7997 1093.4464,261.5997 C1098.8474,254.5997 1104.3474,247.6997 1109.5464,240.5997 C1113.7464,234.8997 1117.5464,228.9997 1121.6474,223.1997 C1124.0464,219.7997 1126.5464,216.3997 1129.6474,212.0997 C1120.7464,213.2997 1119.5464,220.5997 1115.3474,224.7997 C1110.9464,229.1997 1107.2464,234.1997 1101.2464,236.6997 C1098.4464,237.8997 1096.0464,239.9997 1093.3474,241.3997 C1092.4464,241.8997 1090.5464,242.0997 1090.1474,241.5997 C1086.7464,237.4997 1083.6474,233.2997 1080.4464,229.0997 C1080.2464,228.8997 1080.5464,228.2997 1080.3474,228.0997 C1074.7464,221.6997 1081.1474,219.3997 1084.4464,215.8997 C1089.1474,210.8997 1093.5464,205.5997 1098.1474,200.4997 C1102.5464,195.4997 1106.9464,190.5997 1111.0464,185.3997 C1116.2464,178.7997 1121.5464,172.1997 1125.9464,165.0997 C1132.6474,154.2997 1140.1474,144.1997 1148.4464,134.4997 C1153.1474,128.9997 1156.2464,121.9997 1160.6474,114.5997 C1157.9464,115.0997 1156.0464,115.0997 1154.4464,115.7997 C1147.5464,118.9997 1141.4464,123.2997 1135.9464,128.5997 C1134.0464,130.4997 1130.9464,131.3997 1129.0464,133.2997 C1124.2464,138.2997 1120.0464,143.7997 1115.1474,148.6997 C1111.5464,152.2997 1108.6474,155.7997 1106.7464,160.8997 C1103.3474,170.0997 1094.8474,171.6997 1087.2464,165.2997 C1082.9464,161.6997 1079.2464,157.3997 1075.1474,153.2997 C1076.5464,152.3997 1076.9464,151.9997 1077.0464,152.0997 C1086.0464,157.3997 1092.2464,150.4997 1098.3474,146.2997 C1105.4464,141.3997 1111.5464,135.1997 1118.2464,129.6997 C1126.7464,122.5997 1135.1474,115.1997 1144.1474,108.5997 C1149.6474,104.5997 1155.9464,101.3997 1162.2464,98.7997 C1165.1474,97.5997 1169.0464,98.4997 1172.3474,98.9997 C1177.5464,99.7997 1182.7464,100.6997 1187.7464,102.2997 C1191.4464,103.3997 1195.2464,110.6997 1194.6474,114.4997 C1194.5464,115.3997 1193.8474,116.2997 1193.2464,116.8997 C1188.7464,121.7997 1184.9464,127.6997 1179.5464,131.0997 C1175.9464,133.4997 1175.6474,139.2997 1170.1474,139.2997 C1169.1474,139.2997 1168.2464,141.3997 1167.2464,142.4997 C1164.0464,145.8997 1160.9464,149.3997 1157.6474,152.5997 C1156.5464,153.6997 1154.7464,154.2997 1153.7464,155.2997 C1147.1474,161.5997 1140.4464,167.7997 1133.8474,174.0997 C1134.1474,174.3997 1134.4464,174.5997 1134.7464,174.8997 C1133.3474,176.7997 1132.4464,179.3997 1130.6474,180.2997 C1127.4464,181.8997 1127.5464,184.0997 1128.0464,187.2997 C1133.3474,184.2997 1138.2464,181.2997 1143.3474,178.7997 C1147.4464,176.7997 1152.0464,173.5997 1155.9464,174.0997 C1160.2464,174.6997 1164.1474,178.9997 1168.0464,181.7997 C1168.1474,181.8997 1167.1474,183.8997 1166.3474,184.5997 C1165.0464,185.8997 1163.1474,186.7997 1162.0464,188.2997 C1157.7464,194.0997 1153.8474,200.0997 1149.6474,205.7997 C1145.1474,211.7997 1140.2464,217.6997 1135.2464,223.8997 C1141.9464,228.9997 1147.9464,233.9997 1154.3474,238.2997 C1158.0464,240.7997 1162.6474,241.7997 1166.4464,244.1997 C1168.5464,245.4997 1170.6474,248.0997 1171.0464,250.3997 C1171.2464,251.7997 1168.2464,253.7997 1166.4464,255.2997 C1164.7464,256.7997 1162.5464,257.7007 1160.8474,259.2997 C1154.7464,265.0997 1148.9464,271.2007 1142.8474,276.8997 C1138.4464,281.0997 1137.8474,283.8997 1140.7464,291.4997 C1143.1474,297.6997 1145.6474,303.7997 1147.9464,309.9997 C1149.2464,313.4997 1151.1474,314.7997 1154.7464,312.9997 C1163.5464,308.7997 1172.6474,306.3997 1182.4464,305.8997 C1190.7464,305.4997 1198.1474,307.6997 1205.2464,311.7997 C1207.0464,312.8997 1209.0464,313.7007 1211.7464,315.0997 C1210.1474,320.1997 1208.7464,325.4997 1206.6474,330.5997 C1203.6474,337.9997 1200.7464,345.6997 1194.0464,350.5007 C1190.4464,353.0997 1185.8474,354.8997 1181.4464,355.5007 C1166.7464,357.6997 1157.9464,348.0997 1150.1474,337.8997 C1142.8474,328.3007 1145.1474,327.5997 1133.4464,334.9997 C1132.7464,335.3997 1132.2464,335.9997 1131.8474,336.3997 C1134.5464,339.3007 1137.1474,341.9997 1139.5464,344.8007 C1140.1474,345.5997 1140.7464,347.2007 1140.3474,347.8997 C1136.6474,355.1997 1138.1474,362.6997 1139.2464,370.1997 C1139.4464,371.8997 1138.9464,373.6997 1138.6474,375.5007 C1138.4464,376.8007 1137.9464,378.0997 1137.5474,379.3997 C1137.9464,379.8007 1138.4464,380.0997 1138.8474,380.5007 C1140.8474,379.0007 1142.8474,377.3007 1145.0474,375.8997 C1147.2464,374.5007 1149.5474,372.8997 1151.9464,372.3007 C1160.9464,370.1997 1170.1474,368.6997 1179.1474,366.5997 C1182.5474,365.8007 1185.8474,364.0997 1189.0474,362.3997 C1192.6474,360.5007 1195.5474,360.8997 1198.2464,364.0997 C1199.8474,366.0007 1202.2464,367.0997 1203.8474,369.0007 C1205.4464,370.8997 1206.5464,373.3997 1208.0464,376.0007 C1203.0464,377.0997 1199.5464,377.8007 1196.0464,378.5997 C1196.1474,378.3997 1196.1474,378.0997 1196.2464,377.8997 C1193.6474,377.5997 1191.0464,376.8997 1188.5464,377.0997 C1180.7464,377.6997 1172.8474,378.0997 1165.2464,379.8007 C1158.5464,381.3007 1152.1474,384.3997 1145.5464,386.8997 C1144.1474,387.3997 1142.3474,387.8997 1141.4464,389.0007 C1140.1474,390.5997 1138.6474,392.8007 1138.6474,394.8007 C1138.5464,403.0997 1138.7464,411.3997 1139.2464,419.6997 C1139.3474,421.0007 1141.2464,422.8997 1142.6474,423.3007 C1151.9464,426.0007 1161.6474,427.8007 1170.7464,431.0007 C1181.0464,434.5997 1189.1474,441.5007 1194.2464,451.3997 C1194.5464,452.0007 1194.8474,452.5997 1195.1474,453.1997 C1196.9464,456.3997 1200.7464,460.3007 1200.0464,462.8007 C1198.6474,467.8997 1195.6474,473.5007 1191.6474,476.8007 C1185.0464,482.3007 1177.1474,486.1997 1169.7464,490.8007 C1168.4464,491.5997 1167.1474,492.3007 1165.8474,493.0007 C1159.6474,496.3007 1153.5464,499.6997 1147.2464,503.0007 C1143.3474,505.0007 1139.3474,506.8007 1135.3474,508.6997 C1135.1474,508.3007 1134.8474,507.8997 1134.6474,507.5997 C1138.3474,504.8997 1142.1474,502.1997 1145.8474,499.3997 C1157.5464,490.5007 1169.3474,481.8007 1180.6474,472.3997 C1183.9464,469.5997 1185.7464,464.8007 1187.7464,460.6997 C1188.2464,459.6997 1187.4464,457.3997 1186.4464,456.5007 C1179.6474,450.3007 1172.2464,445.3007 1162.6474,444.3997 C1159.1474,444.0007 1155.7464,442.3007 1152.3474,441.3007 C1151.1474,440.8997 1149.7464,440.8007 1148.4464,440.8997 C1138.5464,441.3007 1138.3474,441.3997 1137.7464,451.0007 C1137.1474,460.3997 1137.3474,469.8997 1136.7464,479.3997 C1136.3474,485.6997 1126.8474,490.8997 1122.2464,487.5997 C1119.5464,485.6997 1117.6474,482.1997 1114.7464,480.8997 C1109.7464,478.6997 1104.2464,477.3997 1098.9464,476.0997 C1092.0464,474.3997 1085.1474,473.0007 1078.2464,471.3997 C1077.1474,471.0997 1076.0464,470.6997 1074.9464,470.5007 C1068.0464,469.1997 1066.7464,466.3007 1070.0464,460.1997 C1071.0464,458.4997 1071.2464,456.2997 1071.8474,454.2997" id="Fill-7" fill="#000000"></path>
            <path d="M1426.0464,283.9996 C1430.0464,279.6996 1433.9464,275.4996 1438.6474,270.4996 C1430.3474,270.1996 1426.1474,274.6996 1426.0464,283.9996 M1331.5464,380.6996 C1341.6474,382.6996 1386.6474,363.6006 1389.6474,356.3996 C1371.1474,361.1996 1345.5464,371.7996 1331.5464,380.6996 M1432.6474,238.3996 C1436.3474,237.7996 1439.9464,236.9996 1443.6474,236.4996 C1449.4464,235.7996 1456.0464,233.6996 1460.6474,237.8996 C1465.6474,242.2996 1471.5464,243.5996 1477.1474,246.1996 C1480.6474,247.7996 1481.7464,250.6996 1481.2464,254.8996 C1480.4464,261.4996 1477.5464,266.4996 1472.4464,270.6996 C1470.7464,272.0996 1470.0464,274.7996 1468.7464,276.8996 C1467.7464,278.5996 1466.5464,280.0996 1465.4464,281.6996 C1463.5464,284.6996 1461.7464,287.6996 1459.8474,290.6996 C1459.3474,291.4996 1458.3474,292.9996 1458.2464,292.8996 C1453.6474,290.7996 1452.4464,295.6996 1449.4464,296.8996 C1447.8474,297.4996 1446.2464,300.5996 1444.4464,297.0996 C1444.3474,296.8996 1442.8474,297.0996 1442.2464,297.4996 C1434.1474,303.7996 1425.0464,309.3996 1420.9464,319.4996 C1419.5464,322.8996 1418.7464,326.4996 1417.6474,329.9996 C1418.2464,330.3996 1418.8464,330.8996 1419.4464,331.2996 C1424.7464,326.8996 1430.0464,322.5996 1435.8474,317.7996 C1439.7464,322.5996 1444.0464,327.0996 1444.6474,334.0996 C1445.0464,338.8996 1446.4464,343.5996 1447.3474,348.2996 C1444.7464,351.4996 1441.7464,354.9996 1439.0464,358.6006 C1435.5464,363.1996 1430.7464,365.9996 1426.3474,369.4996 C1417.1474,376.6996 1406.0464,377.7996 1396.0464,381.3996 C1378.1474,387.8996 1359.5464,392.6006 1340.2464,392.8996 C1332.3464,393.1006 1324.4464,392.1006 1316.5464,391.6996 C1316.2464,390.9996 1315.8474,390.3996 1315.5464,389.6996 C1317.5464,387.1006 1319.0464,383.9996 1321.5464,382.1006 C1337.6474,369.7996 1353.9464,357.6996 1370.2464,345.5996 C1372.2464,344.0996 1374.1474,342.4996 1376.3464,341.2996 C1383.7464,337.1996 1387.1474,331.3996 1385.1474,322.7996 C1384.2464,318.8996 1385.1474,315.4996 1389.0464,313.1996 C1392.4464,311.1006 1394.3474,308.1006 1394.0464,303.6996 C1393.7464,298.6996 1393.9464,293.7996 1393.9464,288.6996 C1393.8474,288.6996 1393.4464,288.3996 1393.2464,288.4996 C1381.9464,295.0996 1370.6474,301.7996 1359.2464,308.3996 C1357.8474,309.1996 1356.0464,309.7996 1354.3474,309.8996 C1351.9464,310.1006 1348.6474,308.7996 1348.5464,312.6006 C1348.4464,315.8996 1346.9464,320.1996 1351.7464,322.1006 C1355.4464,323.6006 1359.0464,325.1006 1362.6474,326.6996 C1364.2464,327.4996 1366.2464,328.1996 1367.1474,329.6006 C1368.3464,331.2996 1369.5464,334.1006 1368.9464,335.6996 C1368.3474,337.1996 1365.4464,338.4996 1363.4464,338.7996 C1358.4464,339.4996 1354.1474,337.5996 1350.3474,334.1996 C1345.3474,329.6996 1339.5464,325.9996 1336.0464,318.2996 C1339.2464,319.0996 1341.3474,319.5996 1344.5464,320.4996 C1344.5464,317.3996 1345.2464,314.3996 1344.4464,311.9996 C1342.6474,306.2996 1344.8474,301.9996 1348.1474,297.9996 C1353.8464,290.8996 1359.1474,283.4996 1365.6474,277.1996 C1372.0464,270.9996 1379.4464,265.9996 1386.6474,260.6996 C1389.7464,258.3996 1394.0464,257.2996 1396.6474,254.6006 C1399.0464,252.1006 1400.8464,248.3996 1401.4464,244.8996 C1402.9464,236.6006 1403.8474,228.1006 1404.5464,219.6996 C1404.9464,215.1006 1404.6474,210.3996 1404.3474,205.7996 C1404.1474,202.0996 1400.5464,199.5996 1396.7464,200.3996 C1393.3474,201.0996 1389.8474,201.8996 1386.2464,202.5996 C1386.5464,188.0996 1400.5464,182.5996 1411.8474,189.7996 C1417.0464,193.0996 1422.0464,197.0996 1426.2464,201.5996 C1432.6474,208.6996 1434.7464,217.7996 1433.9464,226.9996 C1433.6474,230.3996 1437.8474,234.7996 1430.6474,237.0996 C1431.3474,237.5996 1431.9464,237.9996 1432.6474,238.3996" id="Fill-9" fill="#000000"></path>
            <path d="M968.4468,284.2999 C979.0468,279.8999 979.6468,272.2999 978.1468,263.8999 C977.9468,262.9999 976.9468,262.1999 976.3468,261.2999 C975.5468,261.9999 974.2468,262.4999 973.9468,263.3999 C972.0468,270.1999 970.3468,276.9999 968.4468,284.2999 M1022.8468,268.7999 C1013.9468,276.1999 1005.5468,282.8999 997.5468,290.0999 C995.4468,291.9999 994.3468,295.2999 993.5468,298.1999 C992.2468,302.5999 991.7468,307.2999 990.7468,311.7999 C989.9468,315.1999 989.0468,318.4999 988.1468,322.0999 C998.1468,322.5999 1025.2468,281.6999 1022.8468,268.7999 M993.6468,266.4999 C996.2468,264.9999 999.1468,262.8999 1002.2468,261.8999 C1009.2468,259.6999 1016.4468,257.8999 1023.5468,256.2999 C1025.2468,255.8999 1027.3468,256.8999 1029.1468,257.4999 C1030.5468,257.9999 1031.7468,259.1999 1033.1468,259.4999 C1039.6468,260.9999 1042.3468,264.7999 1041.0468,271.6999 C1040.0468,276.7999 1038.9468,281.9999 1036.9468,286.7999 C1033.2468,295.7999 1029.4468,304.7999 1024.4468,313.0999 C1020.5468,319.4999 1015.1468,325.2999 1009.3468,330.0999 C1002.9468,335.4999 995.3468,339.3999 988.2468,343.9999 C987.7468,344.2999 986.9468,344.3999 986.3468,344.4999 C979.9468,345.2999 977.8468,347.6999 976.5468,354.1999 C974.7468,363.3999 972.5468,372.4999 970.7468,381.6999 C970.3468,383.5999 971.3468,385.6999 971.7468,387.7999 C973.6468,387.0999 975.7468,386.6999 977.4468,385.6999 C991.3468,376.7999 1002.4468,364.8999 1012.5468,352.0999 C1014.5468,349.5999 1015.8468,346.4999 1017.4468,343.4999 C1020.3468,347.5999 1019.8468,354.6999 1016.5468,360.4999 C1015.8468,361.6999 1014.9468,363.1999 1015.0468,364.3999 C1015.5468,368.4999 1014.7468,371.0999 1008.8468,369.9999 C1012.4468,380.8999 1005.7468,388.3999 1001.1468,395.5999 C997.5468,401.3999 990.6468,405.8999 984.3468,408.9999 C978.5468,411.7999 971.4468,412.6999 964.8468,413.1999 C959.6468,413.5999 953.4468,404.1999 953.7468,396.7999 C954.1468,389.1999 955.4468,381.6999 956.4468,374.0999 C957.3468,367.4999 958.2468,360.7999 959.3468,352.8999 C947.5468,361.3999 935.7468,366.7999 922.3468,364.0999 C911.8468,361.8999 902.8468,355.9999 896.0468,346.7999 C899.9468,345.4999 904.5468,345.0999 907.7468,342.6999 C915.5468,336.9999 922.8468,330.4999 930.2468,324.0999 C934.5468,320.3999 938.5468,316.4999 942.6468,312.6999 C944.6468,310.7999 946.2468,308.6999 948.2468,306.7999 C951.8468,303.1999 955.3468,299.3999 959.2468,296.0999 C965.1468,291.0999 965.0468,284.2999 966.1468,277.5999 C967.3468,270.3999 969.4468,263.1999 972.0468,256.3999 C973.9468,251.2999 983.9468,250.8999 986.9468,255.4999 C989.1468,258.6999 991.0468,262.2999 993.6468,266.4999" id="Fill-11" fill="#000000"></path>
            <path d="M1405.3472,452.4996 C1406.1472,454.3996 1406.7462,455.9996 1407.5462,457.8996 C1417.9472,438.8996 1427.9472,420.6996 1437.8472,402.6006 C1435.1472,402.3996 1432.7462,402.1006 1430.3472,401.8996 C1430.1472,401.3996 1429.8472,400.8996 1429.6472,400.4996 C1437.6472,393.1006 1444.7462,383.9996 1453.9472,378.6996 C1460.0462,375.1996 1468.1472,370.1996 1476.5462,374.1996 C1479.1472,375.3996 1481.5462,377.3996 1483.4472,379.4996 C1485.6472,381.8996 1486.4472,385.6996 1490.8472,385.9996 C1491.6472,386.1006 1493.0462,389.7996 1492.8472,391.6996 C1491.5462,400.4996 1489.7462,409.1996 1488.2462,417.9996 C1487.7462,420.9996 1487.5472,424.1006 1487.2462,427.1996 C1489.7462,425.2996 1492.6472,423.6996 1494.6472,421.3996 C1498.3472,417.1006 1501.5472,412.2996 1505.0472,407.7996 C1505.6472,407.1006 1506.7462,405.9996 1507.2462,406.1006 C1511.8472,407.2996 1513.3472,402.9996 1516.9472,400.4996 C1516.7462,403.1006 1517.0462,405.1006 1516.4472,406.6006 C1514.8472,410.3996 1512.7462,413.8996 1510.8472,417.4996 C1510.5462,418.1006 1509.7462,418.2996 1509.4472,418.8996 C1506.1472,424.1006 1502.7462,429.3996 1499.4472,434.6996 C1498.1472,436.7996 1497.3472,439.2996 1495.6472,440.8996 C1489.7462,446.7996 1487.4472,454.7996 1482.9472,461.2996 C1477.1472,469.6006 1470.1472,478.1996 1458.0462,477.4996 C1456.7462,474.8996 1455.5462,471.8996 1453.7462,469.1996 C1450.8472,464.7996 1451.0462,460.7996 1454.5462,456.9996 C1461.6472,449.1006 1465.2462,439.2996 1469.1472,429.6996 C1473.0462,420.1006 1476.4472,410.1996 1479.6472,400.2996 C1481.6472,394.1996 1479.1472,391.2996 1472.6472,392.1996 C1469.6472,392.6006 1466.5462,393.8996 1464.0462,395.6006 C1460.8472,397.7996 1458.5462,401.1996 1455.4472,403.4996 C1448.4472,408.6996 1440.8472,413.1996 1434.1472,418.7996 C1430.5462,421.7996 1427.8472,426.2996 1425.4472,430.4996 C1423.2462,434.2996 1422.1472,438.6996 1420.4472,442.7996 C1419.9472,443.8996 1418.9472,444.7996 1418.2462,445.8996 C1417.7462,446.6996 1416.6472,447.8996 1416.8472,448.1996 C1419.2462,451.3996 1415.8472,453.1996 1415.3472,455.6996 C1413.7462,463.8996 1412.4472,472.1006 1410.7462,481.6996 C1409.5472,478.8996 1408.7462,476.8996 1407.4472,473.8996 C1402.2462,471.6996 1401.0462,458.1996 1405.3472,452.4996" id="Fill-13" fill="#000000"></path>
            <path d="M1642.9468,315.2999 C1630.3468,325.2999 1617.7468,335.2999 1605.1468,345.2999 C1604.8468,345.1999 1604.5468,345.0999 1604.1468,344.9999 C1604.8468,343.5999 1605.2468,341.7999 1606.3468,340.6999 C1616.9468,330.3999 1627.6468,320.2999 1638.3468,310.0999 C1638.8468,309.5999 1639.6468,309.2999 1639.8468,308.7999 C1642.2468,301.8999 1648.7468,300.4999 1654.3468,298.6999 C1658.2468,297.4999 1662.8468,297.7999 1666.9468,298.4999 C1670.1468,299.0999 1670.6468,303.5999 1668.0468,307.3999 C1665.8468,310.5999 1663.2468,313.5999 1660.5468,316.9999 C1655.5468,315.7999 1653.9468,317.1999 1655.1468,323.0999 C1656.6468,330.1999 1656.6468,336.7999 1650.1468,341.8999 C1647.6468,343.8999 1648.1468,344.3999 1650.9468,347.1999 C1651.6468,347.7999 1651.5468,349.3999 1651.5468,350.4999 C1651.5468,352.3999 1651.3468,354.2999 1651.1468,356.8999 C1659.0468,355.8999 1666.2468,355.2999 1673.3458,354.0999 C1679.0468,353.1999 1684.7468,351.8999 1690.2468,350.1999 C1694.0468,349.0999 1697.1468,348.9999 1700.3458,351.5999 C1703.7468,354.3999 1707.8458,356.3999 1711.0468,359.2999 C1712.9468,360.9999 1714.3458,363.8999 1709.6458,364.9999 C1708.1458,365.3999 1706.9468,367.1999 1705.5468,368.3999 C1704.3458,369.4999 1703.1458,371.2999 1701.8458,371.3999 C1696.2468,371.8999 1693.8458,376.3999 1690.8458,379.7999 C1687.2468,383.8999 1683.1468,386.0999 1677.7468,386.7999 C1674.0468,387.2999 1670.3458,390.1999 1666.9468,389.7999 C1656.9468,388.6999 1651.5468,398.4999 1642.4468,399.2999 C1639.6458,399.4999 1637.0468,401.8999 1634.2468,402.8999 C1633.0468,403.2999 1631.5468,402.5999 1630.0468,401.6999 C1640.2468,398.4999 1646.8468,389.8999 1656.5468,385.7999 C1665.7468,381.8999 1673.0468,373.3999 1680.8468,365.8999 C1679.3468,366.0999 1677.8468,366.1999 1676.4468,366.5999 C1672.5468,367.6999 1668.6468,368.7999 1664.9468,370.2999 C1663.8468,370.7999 1663.7468,373.7999 1662.7468,374.0999 C1659.7468,375.0999 1654.8468,376.7999 1653.7468,375.4999 C1650.8468,372.1999 1649.5468,375.0999 1647.5468,375.6999 C1646.1468,376.1999 1644.7468,376.5999 1643.1468,377.0999 C1642.5468,376.0999 1641.8468,374.0999 1641.2468,374.0999 C1633.9468,374.2999 1635.3468,368.0999 1635.5468,364.7999 C1636.3468,353.9999 1638.1468,343.1999 1639.9468,332.3999 C1640.6468,328.1999 1642.6468,324.2999 1643.8468,320.0999 C1644.2468,318.7999 1644.0468,317.2999 1644.1468,315.7999 C1643.9468,315.8999 1643.4468,315.5999 1642.9468,315.2999" id="Fill-15" fill="#000000"></path>
            <path d="M955.8472,238.1998 C960.5462,232.1998 965.1472,226.1998 970.0462,220.3998 C988.0462,198.8998 1006.2462,177.4998 1024.2462,155.9998 C1028.0462,151.3998 1031.5462,146.5998 1035.4472,141.9998 C1038.3472,138.4998 1042.1472,139.1998 1043.6472,143.5998 C1044.7462,146.6998 1045.5462,149.4998 1043.7462,153.2998 C1041.4472,158.3998 1041.8462,164.6998 1039.9472,170.0998 C1037.7462,176.1998 1034.8462,182.1998 1028.7462,185.8998 C1026.1472,187.4998 1024.2462,190.3998 1021.7462,192.2998 C1019.0462,194.2998 1015.9472,195.7998 1013.0462,197.5998 C1010.7462,198.9998 1008.6472,201.5998 1006.2462,201.8998 C1001.4472,202.3998 998.1472,205.1998 994.9472,207.8998 C983.4472,217.1998 972.1462,226.9998 960.7462,236.4998 C959.5462,237.4998 958.1472,238.3998 956.8462,239.3998 C956.6472,238.8998 956.2462,238.5998 955.8472,238.1998" id="Fill-17" fill="#000000"></path>
        </g>
    </g>
</svg>